<?xml version="1.0" encoding="UTF-8" standalone="no"?>
<svg xmlns="http://www.w3.org/2000/svg" version="1.1" width="2000" height="2250">
<path d="M0 0 C1.79824219 0.41137207 1.79824219 0.41137207 3.6328125 0.83105469 C40.40049839 9.49374432 76.13887129 22.56518902 111 37 C111.67830872 37.28059265 112.35661743 37.5611853 113.05548096 37.85028076 C138.29239989 48.30590282 163.23411325 59.41181661 188 70.9375 C189.07596436 71.43765625 190.15192871 71.9378125 191.26049805 72.453125 C213.64668716 82.92741187 235.82743581 93.82792177 257.92431641 104.89697266 C261.03395816 106.45467226 264.14543746 108.008663 267.25737 109.56177998 C280.58073411 116.21310857 293.86346133 122.92824572 307.00384521 129.93560791 C308.90463798 130.94915095 310.80758471 131.95850563 312.71142578 132.96630859 C316.06104994 134.74203005 319.40670224 136.5248986 322.75 138.3125 C323.33706726 138.62637665 323.92413452 138.9402533 324.5289917 139.26364136 C333.56601907 144.10087771 342.51734119 149.07561117 351.41918945 154.15771484 C358.52958915 158.20474564 365.71834358 162.08842244 372.9375 165.9375 C382.47554837 171.03199816 391.86193815 176.33584042 401.17822266 181.82446289 C407.84734598 185.7532486 414.56053908 189.59056902 421.3125 193.375 C432.47935185 199.65133654 443.49942489 206.16489812 454.50062561 212.72610474 C459.04670338 215.4362538 463.60214363 218.13029407 468.16015625 220.8203125 C481.07488578 228.4474027 493.95114489 236.10157188 506.5859375 244.1875 C511.46004426 247.30657688 516.38581411 250.33991484 521.3125 253.375 C528.59295414 257.86925705 535.84290443 262.40858206 543.0625 267 C543.86276611 267.50837402 544.66303223 268.01674805 545.48754883 268.54052734 C561.60232622 278.81510297 577.5751256 289.31403412 593.53857422 299.8215332 C595.4394887 301.07206594 597.34119025 302.32140303 599.24365234 303.56958008 C609.3409965 310.19461624 619.38142483 316.85779039 629.16064453 323.94604492 C632.64691072 326.46796731 636.18887598 328.898263 639.75 331.3125 C647.84509251 336.84265299 655.78422308 342.57826869 663.71337891 348.34277344 C665.98451027 349.98877383 668.26243863 351.62486456 670.54296875 353.2578125 C680.19052961 360.17271293 689.68341029 367.2600741 699.07617188 374.51708984 C700.84269351 375.87874624 702.61493774 377.23236148 704.390625 378.58203125 C711.80861202 384.23687603 719.06320574 390.07061257 726.28515625 395.97265625 C729.21097796 398.36289882 732.16011924 400.72077973 735.125 403.0625 C744.28461068 410.37168428 753.10293803 418.11248277 761.7734375 425.9921875 C763.82295952 427.84035297 765.90418138 429.64227688 768 431.4375 C772.0992537 434.99737822 775.87256267 438.8553536 779.68359375 442.71875 C781.46810412 444.47617674 783.22695644 446.07747761 785.1875 447.625 C788.10552529 450.08911024 790.4433796 452.69580751 792.90625 455.6015625 C794.910209 457.8971424 796.99899194 460.09048893 799.11157227 462.28564453 C860.96898541 527.24640587 860.18213976 651.4059387 873.1875 851.75 C873.24289444 853.2313443 873.24289444 853.2313443 873.29940796 854.74261475 C873.52473872 860.90747157 873.71812704 867.07285706 873.89285278 873.23934937 C873.9686813 875.90077696 874.04712579 878.56203755 874.12838745 881.22329712 C875.1612608 915.45588025 875.20136783 949.69114145 875.18822432 983.93584824 C875.1874944 986.20492309 875.18724798 988.47399754 875.1871376 990.74307251 C875.18384131 1035.23015197 875.02965514 1079.68562209 873.16143799 1124.14074707 C873.0226796 1127.45783332 872.88862605 1130.77503936 872.75722218 1134.09242058 C868.83579686 1233.01491475 863.70002941 1334.28145473 824 1479 C823.566875 1479.928125 823.13375 1480.85625 822.6875 1481.8125 C815.78350363 1495.62049274 804.94744704 1507.46896985 794.359375 1518.55517578 C792.26702196 1520.77905245 790.26468788 1523.08087767 788.25 1525.375 C785.06517345 1528.93148494 781.74398662 1532.08260372 778.09765625 1535.15625 C775.61865449 1537.33518637 773.31769812 1539.65045565 771 1542 C766.82157576 1546.21640992 762.52070588 1550.15778118 758 1554 C756.9252178 1554.92643005 755.85105226 1555.85357577 754.77734375 1556.78125 C747.6072575 1562.96710959 740.35585249 1569.03553231 733 1575 C731.78601933 1575.99555867 730.57250776 1576.99168954 729.359375 1577.98828125 C719.73486847 1585.87845889 709.93347458 1593.50360029 700 1601 C698.80818115 1601.90153809 698.80818115 1601.90153809 697.59228516 1602.82128906 C681.00462382 1615.36086838 664.17332447 1627.53671491 647.15429688 1639.48291016 C645.05065885 1640.96432524 642.95439856 1642.45565383 640.859375 1643.94921875 C624.34412733 1655.672153 607.4108337 1666.78343224 590.53955078 1677.98388672 C586.9386639 1680.37502382 583.34178749 1682.77209267 579.74684143 1685.17214966 C574.10290946 1688.94012435 568.45328847 1692.6972276 562.75 1696.375 C562.05438965 1696.82431885 561.3587793 1697.2736377 560.64208984 1697.73657227 C552.92564254 1702.70964161 545.15891447 1707.60271922 537.38964844 1712.49267578 C535.05080429 1713.96795406 532.71613853 1715.44960633 530.3828125 1716.93359375 C519.05801243 1724.12949804 507.62674713 1731.13843853 496.14990234 1738.08886719 C492.87359443 1740.07669376 489.60237359 1742.07268823 486.33203125 1744.0703125 C471.37479702 1753.20005805 456.32440957 1762.15657112 441.18319702 1770.97775269 C437.35724067 1773.20677083 433.53644348 1775.44436284 429.71875 1777.6875 C417.61143798 1784.79304807 405.42009567 1791.73086551 393.15625 1798.5625 C388.18632828 1801.33190292 383.23424115 1804.13129257 378.28808594 1806.94287109 C366.64575402 1813.55774176 354.90855038 1819.98197994 343.11523438 1826.32324219 C339.9128894 1828.0468868 336.71395811 1829.77673621 333.515625 1831.5078125 C320.46416956 1838.56498602 307.35842505 1845.50618673 294.1862793 1852.33520508 C291.83621232 1853.56308852 289.4920679 1854.79972434 287.15161133 1856.0456543 C273.41648859 1863.34453392 259.52693663 1870.33030643 245.61547852 1877.28491211 C242.92821171 1878.62850509 240.24236745 1879.97487436 237.55786133 1881.32397461 C219.18617092 1890.55586012 200.70417853 1899.45824867 182 1908 C180.21421857 1908.81897074 178.42848869 1909.63805391 176.64282227 1910.45727539 C115.08662291 1938.63735559 50.2500959 1968.03690997 -17 1979 C-18.05316406 1979.19078125 -19.10632813 1979.3815625 -20.19140625 1979.578125 C-39.22763168 1981.68675305 -58.39437513 1980.24366064 -77 1976 C-78.0101416 1975.77989258 -79.0202832 1975.55978516 -80.06103516 1975.33300781 C-150.43651532 1959.82379642 -217.88959577 1928.05433222 -282.62463379 1897.13397217 C-284.31301955 1896.32795646 -286.00196173 1895.52310584 -287.69128418 1894.71905518 C-303.46814594 1887.20758 -319.14524575 1879.50751065 -334.76806641 1871.68115234 C-337.7881515 1870.16824328 -340.81006047 1868.65901695 -343.83243465 1867.15068722 C-357.64019438 1860.25789283 -371.38588589 1853.26832065 -385 1846 C-386.23270017 1845.34398677 -387.46544537 1844.68805815 -388.69824219 1844.03222656 C-392.03073805 1842.2557157 -395.35992002 1840.47319977 -398.6875 1838.6875 C-399.27195892 1838.37395569 -399.85641785 1838.06041138 -400.45858765 1837.73736572 C-404.64024824 1835.4937876 -408.82025969 1833.24715328 -413 1831 C-414.06508789 1830.42813965 -415.13017578 1829.8562793 -416.22753906 1829.26708984 C-428.95577048 1822.42872996 -441.59502339 1815.45291461 -454.15625 1808.3125 C-459.1856923 1805.45501659 -464.23430848 1802.63315899 -469.28759766 1799.81811523 C-481.63194068 1792.93792839 -493.86447363 1785.88301025 -506.05126953 1778.72802734 C-508.93557244 1777.03775611 -511.82423329 1775.35523931 -514.71484375 1773.67578125 C-559.45808326 1747.67551058 -559.45808326 1747.67551058 -577.25073242 1736.28686523 C-583.31758252 1732.40627965 -589.46247149 1728.6639487 -595.625 1724.9375 C-603.09721494 1720.41278533 -610.49991052 1715.80708123 -617.81152344 1711.02734375 C-622.0357201 1708.26606365 -626.28698962 1705.55584493 -630.56665039 1702.88134766 C-642.04292114 1695.70306471 -653.29345537 1688.19437216 -664.53540039 1680.65715027 C-668.87891945 1677.7463463 -673.23225223 1674.85062317 -677.58984375 1671.9609375 C-692.01315772 1662.39135166 -706.34539109 1652.71384711 -720.50439453 1642.75488281 C-722.84235064 1641.11085733 -725.18425108 1639.47262997 -727.52734375 1637.8359375 C-737.32381989 1630.97695056 -746.96326282 1623.91592492 -756.57080078 1616.79541016 C-759.01986576 1614.98531731 -761.47559138 1613.18465246 -763.93359375 1611.38671875 C-772.85885975 1604.85302218 -781.67469282 1598.21873275 -790.32617188 1591.32666016 C-792.04837327 1589.96165981 -793.78034824 1588.61004984 -795.515625 1587.26171875 C-801.89706404 1582.29788962 -808.16850183 1577.23757707 -814.31445312 1571.984375 C-817.688141 1569.10088109 -821.10526183 1566.28362156 -824.5625 1563.5 C-829.55168418 1559.44174232 -834.27670615 1555.15484434 -838.98046875 1550.7734375 C-841.24585453 1548.67227684 -843.5561053 1546.6301013 -845.88671875 1544.6015625 C-873.85478666 1520.2184653 -899.05582157 1493.23453178 -910.875 1457.375 C-911.08654724 1456.73384247 -911.29809448 1456.09268494 -911.51605225 1455.43209839 C-942.93422294 1359.51406485 -945.68686709 1251.31065724 -950.83856201 1132.98822021 C-950.99454862 1129.13467274 -951.15728772 1125.28145701 -951.32080078 1121.42822266 C-954.67161974 1040.63887643 -954.64039777 959.13417455 -951.16143799 850.81634521 C-951.02282796 847.53964608 -950.88878885 844.26280152 -950.75722218 840.98581314 C-942.075786 625.0276483 -942.075786 625.0276483 -873.71484375 458.8671875 C-871.3210992 456.33911772 -869.02504266 453.75925992 -866.75 451.125 C-863.75933694 447.73435114 -860.58217507 444.79395579 -857.1328125 441.87890625 C-854.64384271 439.68624239 -852.3293018 437.36135641 -850 435 C-845.82169878 430.78371422 -841.52179027 426.84084385 -837 423 C-835.94871394 422.09694151 -834.89797965 421.19324046 -833.84765625 420.2890625 C-830.83691458 417.69892669 -827.81954589 415.11666104 -824.79931641 412.53759766 C-823.6391774 411.54620614 -822.47992905 410.55377096 -821.32177734 409.56005859 C-813.67909761 403.00294757 -805.88948167 396.67686792 -797.93359375 390.50390625 C-795.87770025 388.90487797 -793.82911162 387.29679961 -791.78125 385.6875 C-781.79093955 377.85263325 -771.64972936 370.25009296 -761.39990234 362.75878906 C-758.98623563 360.98991267 -756.57991216 359.21149835 -754.17578125 357.4296875 C-744.6307489 350.35792864 -735.0192666 343.39794912 -725.28027344 336.59570312 C-722.91412275 334.93990431 -720.55463329 333.27488836 -718.1953125 331.609375 C-669.75755099 297.54110284 -619.72285816 265.5472163 -569.08251953 234.87158203 C-566.37818534 233.22961895 -563.67742635 231.58196255 -560.97860718 229.93095398 C-545.81683746 220.65578388 -530.53869798 211.6253151 -515.11425781 202.79101562 C-510.10205001 199.90848533 -505.11455932 196.98399382 -500.125 194.0625 C-469.82468205 176.35958989 -439.19121551 159.31654638 -408.25683594 142.74755859 C-404.96218335 140.97970828 -401.67210522 139.20358173 -398.3828125 137.42578125 C-354.77124315 113.89147965 -310.57096538 90.93510502 -265.40087891 70.54443359 C-261.55280213 68.79691502 -257.71951481 67.01898179 -253.88671875 65.23828125 C-192.46724927 36.75724504 -128.01306094 8.76086378 -61 -3 C-59.90300781 -3.20109375 -58.80601562 -3.4021875 -57.67578125 -3.609375 C-38.41441282 -5.65627919 -18.83008857 -4.31056956 0 0 Z " fill="#D9C6FE" transform="translate(1039,137)"/>
<path d="M0 0 C1.08938167 -0.00438225 2.17876334 -0.00876451 3.30115658 -0.01327956 C6.93482747 -0.02658509 10.56847416 -0.03282777 14.2021637 -0.03897095 C16.81464749 -0.0468784 19.42713022 -0.05514774 22.03961182 -0.06375122 C29.86544652 -0.08817643 37.69128734 -0.10288625 45.51714835 -0.11581129 C47.73120791 -0.11952996 49.94526688 -0.12350261 52.15932584 -0.12756395 C65.93943196 -0.15280336 79.71953924 -0.1748333 93.49966335 -0.1872921 C96.68532757 -0.19022126 99.87099175 -0.19318301 103.05665588 -0.19619751 C103.84832954 -0.19694356 104.6400032 -0.19768961 105.45566697 -0.19845827 C118.26612464 -0.2110987 131.07644312 -0.24431062 143.88683581 -0.28599934 C157.06993319 -0.32854579 170.25295953 -0.35200157 183.43612534 -0.35721266 C190.82549755 -0.36061201 198.21465205 -0.37219175 205.60395622 -0.4053154 C211.89957734 -0.43349227 218.194936 -0.44423869 224.49061524 -0.43311994 C227.69509227 -0.42797815 230.89891336 -0.43332376 234.10333252 -0.45558548 C255.55759611 -0.59642027 276.26215831 1.28762279 292.72779846 16.6890564 C309.11146997 35.58868477 308.16232864 59.3483214 308.15162659 82.88534546 C308.15765833 85.58724079 308.16448327 88.28912304 308.17233276 90.99101257 C308.1877115 96.78841584 308.19618084 102.58579499 308.20004272 108.38321686 C308.20582379 116.78466952 308.22446458 125.18605789 308.24648327 133.58748195 C308.28212222 147.24779438 308.3104674 160.90811048 308.33277893 174.56845093 C308.33411392 175.38421261 308.33544891 176.19997429 308.33682436 177.04045603 C308.34624836 182.82827043 308.35541105 188.61608524 308.36451721 194.40390015 C308.37491186 201.0085554 308.38543091 207.61321043 308.39625549 214.21786499 C308.39758624 215.03140738 308.39891698 215.84494977 308.40028805 216.68314496 C308.42278743 230.29130297 308.45301363 243.89943356 308.48864794 257.50756335 C308.51019706 265.87831099 308.52490091 274.24901594 308.5304867 282.61978975 C308.53476302 288.36424501 308.54607635 294.10865963 308.56271064 299.85309228 C308.57202955 303.15664333 308.57715455 306.4600545 308.57564735 309.76362801 C308.56391173 345.76741281 315.37494173 369.85653161 335.41149902 399.95750427 C339.47444993 406.06143263 343.48247908 412.20061882 347.48951721 418.34140015 C348.90603977 420.50816103 350.32270522 422.67482851 351.73951721 424.84140015 C356.27322021 431.77779592 360.80215281 438.7172978 365.32618713 445.66000366 C368.49629067 450.52482993 371.67072716 455.38673542 374.85279846 460.2437439 C385.82271191 477.00139014 385.82271191 477.00139014 390.48951721 484.65390015 C391.39250549 486.1234314 391.39250549 486.1234314 392.31373596 487.62265015 C393.26635366 489.17755259 394.20886837 490.73876735 395.13404846 492.31015015 C398.34328332 497.37623327 402.37873092 499.99699214 407.86451721 502.15390015 C411.89101795 502.81418668 415.79278111 502.81079503 419.86451721 502.71640015 C420.89318909 502.72735718 421.92186096 502.73831421 422.98170471 502.74960327 C430.83306031 502.67468576 436.935827 501.1639414 443.21998596 496.34921265 C450.58735984 488.02360891 456.20404037 478.50845653 462.04273987 469.08407593 C464.90525898 464.47995447 467.82317375 459.91154145 470.73951721 455.34140015 C471.90624752 453.50810732 473.07291329 451.6747734 474.23951721 449.84140015 C482.1396861 437.43916996 490.07818439 425.0613526 498.01295471 412.6812439 C501.34886949 407.4761108 504.67797653 402.26666059 508.00563049 397.0562439 C509.78276024 394.28155012 511.57040278 391.51391763 513.36061096 388.74765015 C525.45077004 369.98469147 532.21552174 352.63829026 532.11607361 330.02572632 C532.11904375 328.86577211 532.12201389 327.70581791 532.12507403 326.51071358 C532.13266184 322.65604718 532.12624136 318.80153553 532.11988831 314.9468689 C532.12151304 312.16969949 532.12620457 309.39253748 532.13085938 306.6153717 C532.13946132 300.64877522 532.1413079 294.68220837 532.1389122 288.71560669 C532.13580079 280.06731012 532.14750232 271.41907839 532.163462 262.77079821 C532.18938441 248.70791222 532.20942178 234.64502618 532.22291565 220.5821228 C532.22372602 219.74182982 532.22453639 218.90153684 532.22537132 218.03578043 C532.23657912 206.12639976 532.24187141 194.21702376 532.24475844 182.30763853 C532.24496243 181.46977107 532.24516642 180.63190362 532.24537659 179.76864624 C532.24567649 178.51339675 532.24567649 178.51339675 532.24598245 177.23278868 C532.24972813 163.22916328 532.2689006 149.22560833 532.30047095 135.22201824 C532.31928347 126.60721887 532.32541053 117.99260106 532.31465377 109.37778693 C532.30828744 103.46226507 532.31650663 97.54687242 532.33570789 91.63137883 C532.34628618 88.23024141 532.34848395 84.8296763 532.3372364 81.42850304 C532.26499883 57.64972768 532.82452357 33.41824547 550.43482971 15.33358765 C564.23955808 2.94928149 580.76466662 -0.00247676 598.73666382 0.01345825 C600.32808379 0.00900157 600.32808379 0.00900157 601.95165366 0.00445485 C605.48877841 -0.00418178 609.02586911 -0.0057361 612.56300354 -0.00723267 C615.10640535 -0.0118643 617.64980647 -0.01688943 620.19320679 -0.02227783 C627.08995409 -0.0353681 633.98669028 -0.04187714 640.88344789 -0.04628849 C645.1951238 -0.04905879 649.5067975 -0.05329745 653.81847191 -0.05779266 C665.77275482 -0.06997654 677.72703597 -0.08027885 689.68132496 -0.08366776 C690.44506905 -0.08388732 691.20881314 -0.08410689 691.995701 -0.08433311 C692.76118906 -0.08455138 693.52667713 -0.08476966 694.3153618 -0.08499455 C695.86633353 -0.08543801 697.41730525 -0.08588457 698.96827698 -0.08633423 C700.12226088 -0.08666637 700.12226088 -0.08666637 701.29955759 -0.08700523 C713.76483518 -0.09095317 726.23005431 -0.10841104 738.69530932 -0.13169375 C751.51451518 -0.15544309 764.33369174 -0.16787117 777.15291995 -0.16903567 C784.34194707 -0.16995021 791.53089792 -0.17564698 798.71990395 -0.19385529 C805.4824811 -0.2109243 812.24488916 -0.21248227 819.00749016 -0.20371628 C821.48418694 -0.20294699 823.96089155 -0.20727427 826.43756866 -0.21717453 C829.82902298 -0.22993273 833.21996824 -0.2239959 836.61141968 -0.21359253 C838.06724975 -0.22567714 838.06724975 -0.22567714 839.55249053 -0.23800588 C854.58355363 -0.13080926 870.78510039 4.77239935 881.86451721 15.15390015 C882.47811096 15.7262439 883.09170471 16.29858765 883.72389221 16.88827515 C892.84195808 26.32910441 896.93837814 38.44138228 898.86451721 51.15390015 C899.03723302 52.27513118 899.20994883 53.39636221 899.38789845 54.55156994 C900.10570423 60.40041687 900.00576334 66.2585089 899.99822998 72.14274597 C900.00162832 74.09443798 900.00162832 74.09443798 900.0050953 76.08555812 C900.01119137 79.68262657 900.01108225 83.27967171 900.00990093 86.87674415 C900.00969632 90.76347513 900.01522203 94.65019875 900.0199585 98.53692627 C900.02825796 106.15296864 900.03101319 113.76900328 900.03157087 121.3850498 C900.03204719 127.59165365 900.03410775 133.79825497 900.0372715 140.00485802 C900.04608287 157.6543176 900.05069113 175.30377112 900.04994103 192.95323292 C900.04988109 194.37985446 900.04988109 194.37985446 900.04981995 195.83529663 C900.04975863 197.26369217 900.04975863 197.26369217 900.04969607 198.72094419 C900.04929138 214.08390112 900.05881451 229.44683333 900.07295831 244.80978314 C900.08741162 260.63603083 900.09422335 276.46226655 900.09336454 292.28852099 C900.09303521 301.15222032 900.09566322 310.01589386 900.10654259 318.87958717 C900.11576707 326.44316952 900.11772779 334.00671447 900.11103316 341.57030008 C900.1078244 345.41259839 900.10749845 349.25482548 900.11638641 353.09711647 C900.15069689 368.98818028 899.8673686 384.81646157 898.97433472 400.68495178 C898.93547015 401.39377728 898.89660558 402.10260278 898.85656329 402.83290783 C895.30769602 466.06608727 872.00104258 513.478871 834.66285706 563.7305603 C831.71932927 567.69708987 828.79272978 571.67605934 825.86451721 575.65390015 C824.7005157 577.23337218 823.53645312 578.81279921 822.37232971 580.3921814 C820.01108524 583.59653912 817.65193175 586.80242231 815.29420471 590.0093689 C809.36641996 598.06907623 803.41283754 606.10714917 797.3986969 614.10263062 C791.76142636 621.60596794 786.20580442 629.16920555 780.64674377 636.7305603 C777.72220975 640.70712533 774.79316288 644.68036286 771.86451721 648.65390015 C770.69782833 650.23721711 769.53116168 651.82055045 768.36451721 653.40390015 C761.36451721 662.90390015 754.36451721 672.40390015 747.36451721 681.90390015 C746.49802551 683.0798877 746.49802551 683.0798877 745.61402893 684.27963257 C744.44907872 685.86058997 743.28403987 687.44148206 742.11891174 689.02230835 C739.17524741 693.01645843 736.23320376 697.01178445 733.29420471 701.0093689 C727.36641996 709.06907623 721.41283754 717.10714917 715.3986969 725.10263062 C709.76142636 732.60596794 704.20580442 740.16920555 698.64674377 747.7305603 C695.72220975 751.70712533 692.79316288 755.68036286 689.86451721 759.65390015 C688.69782833 761.23721711 687.53116168 762.82055045 686.36451721 764.40390015 C684.03118388 767.57056681 681.69785055 770.73723348 679.36451721 773.90390015 C678.49802551 775.0798877 678.49802551 775.0798877 677.61402893 776.27963257 C676.44907872 777.86058997 675.28403987 779.44148206 674.11891174 781.02230835 C671.17524741 785.01645843 668.23320376 789.01178445 665.29420471 793.0093689 C659.36641996 801.06907623 653.41283754 809.10714917 647.3986969 817.10263062 C641.77779407 824.58418214 636.2380313 832.12526184 630.69508362 839.66464233 C627.52496867 843.97545749 624.35091748 848.28337169 621.17701721 852.59140015 C620.58872131 853.3903772 620.00042542 854.18935425 619.39430237 855.01254272 C618.84435608 855.75915161 618.29440979 856.5057605 617.72779846 857.2749939 C617.24609192 857.92911255 616.76438538 858.5832312 616.26808167 859.25717163 C614.86451721 861.15390015 614.86451721 861.15390015 613.30045319 862.77861786 C611.27696113 866.12581782 611.45103471 869.25875354 611.48597717 873.05514526 C611.48144704 873.85707857 611.47691691 874.65901187 611.47224951 875.48524618 C611.46060943 878.17639419 611.4702795 880.86704665 611.47975159 883.55819702 C611.47564674 885.48690614 611.47018638 887.41561278 611.46347046 889.34431458 C611.45173059 893.50275066 611.4492668 897.66105395 611.4538269 901.81950378 C611.46063916 908.41195428 611.44475931 915.00423064 611.4254303 921.59664917 C611.38753356 935.61572337 611.37479412 949.63478262 611.36451721 963.65390015 C611.3534299 978.73506297 611.33782177 993.81614525 611.29380465 1008.89725351 C611.2755803 1015.43153373 611.27150956 1021.96561478 611.27873993 1028.49991417 C611.28027805 1032.59699474 611.26937508 1036.69397876 611.25536156 1040.79103279 C611.25140845 1042.66932368 611.25239736 1044.54763371 611.25913429 1046.42591667 C611.29086628 1056.02270267 610.91771649 1065.38688389 609.53578186 1074.89450073 C609.36302097 1076.09877771 609.36302097 1076.09877771 609.18676996 1077.32738352 C606.72563409 1092.63933545 599.50207625 1104.57032619 587.11451721 1113.96640015 C568.37198207 1126.18354345 546.03323477 1125.59693525 524.53346252 1125.5262146 C521.92301285 1125.52864736 519.31256412 1125.53237135 516.70211792 1125.53727722 C510.39120657 1125.54668853 504.08041086 1125.5402341 497.76950821 1125.52801428 C490.40131867 1125.51428669 483.03315562 1125.51604145 475.66495654 1125.51814761 C462.51026183 1125.52132607 449.35562156 1125.50973414 436.20094299 1125.49008179 C423.46948084 1125.47106703 410.7380824 1125.46399974 398.00660706 1125.46957397 C384.09822435 1125.47564559 370.18986954 1125.47543061 356.28148913 1125.46408814 C354.79582644 1125.462881 353.31016374 1125.46167502 351.82450104 1125.4604702 C351.09376334 1125.45986666 350.36302565 1125.45926312 349.61014439 1125.45864129 C344.48738459 1125.45477961 339.36463524 1125.45514888 334.24187469 1125.45705605 C327.33719271 1125.45941208 320.43259325 1125.45077522 313.52792931 1125.43499565 C311.00208306 1125.4307723 308.47622855 1125.42988904 305.95038033 1125.43268585 C282.83468645 1125.4543892 258.52638663 1125.26920838 240.55201721 1108.52890015 C232.13843958 1099.59530741 228.72012916 1088.8838754 225.86451721 1077.15390015 C225.68512698 1076.4371345 225.50573675 1075.72036886 225.32091045 1074.98188305 C224.71687424 1071.23904919 224.75911573 1067.5557253 224.80050659 1063.77726746 C224.80791651 1062.51584121 224.80791651 1062.51584121 224.81547612 1061.22893161 C224.82685947 1059.38795105 224.84058682 1057.54698386 224.85635185 1055.70603561 C224.89092348 1051.65898021 224.91415598 1047.61187878 224.93833864 1043.56475008 C224.95151589 1041.38490894 224.96530182 1039.20507141 224.97965205 1037.02523768 C225.07047557 1023.01669436 225.08825369 1009.00797005 225.11057913 994.99917948 C225.13288341 981.36708925 225.17753498 967.73598921 225.29298401 954.1043396 C225.38460263 943.27032567 225.42624812 932.43740341 225.41011876 921.60299605 C225.40341396 915.87598687 225.42110549 910.15149715 225.49936867 904.42496681 C225.57254795 899.02541407 225.57871687 893.6297129 225.53613281 888.22987175 C225.53200384 886.26194421 225.5512788 884.29378655 225.59731102 882.32639313 C225.92898938 867.27316031 221.76481724 859.25925907 211.66924322 848.2195133 C208.67292958 844.79005928 206.09224707 841.07299676 203.48951721 837.34140015 C202.89791809 836.51527222 202.30631897 835.68914429 201.6967926 834.83798218 C201.22749329 834.18168823 200.75819397 833.52539429 200.27467346 832.84921265 C195.92930023 826.82155374 191.3965961 820.93849777 186.87672424 815.04135132 C182.47547459 809.29085576 178.14248104 803.49659999 173.86451721 797.65390015 C168.93899181 790.92883927 163.93094169 784.27343763 158.86451721 777.65390015 C153.19220799 770.24107652 147.60304479 762.77461958 142.08326721 755.24765015 C137.88125627 749.52110009 133.63411353 743.83021031 129.36451721 738.15390015 C124.51242174 731.70317347 119.70040206 725.22556131 114.92701721 718.71640015 C109.31681881 711.07075561 103.58930291 703.52051933 97.82569885 695.99008179 C92.85778719 689.48786516 87.98865389 682.91927396 83.15357971 676.31796265 C78.79174427 670.37718225 74.3438145 664.50649098 69.86451721 658.65390015 C61.82321092 648.14250216 53.97391247 637.49758853 46.15553284 626.81991577 C38.81539604 616.80150785 31.38220227 606.86458672 23.83473206 597.00131226 C18.77473484 590.37775018 13.80456199 583.69309091 8.87672424 576.97079468 C5.69098537 572.62627404 2.48075282 568.30290696 -0.76756287 564.00497437 C-50.42620119 498.27529021 -66.51011449 437.07635649 -66.41159117 355.15951204 C-66.40906677 351.20331125 -66.41820611 347.24713166 -66.42562866 343.29093933 C-66.43821625 335.59250738 -66.44019024 327.89411054 -66.4378284 320.19567002 C-66.43602952 313.93415753 -66.437828 307.67265551 -66.44205284 301.41114426 C-66.44264803 300.51270961 -66.44324322 299.61427496 -66.44385644 298.68861502 C-66.44506842 296.862421 -66.44628255 295.03622699 -66.44749882 293.21003298 C-66.45830951 276.18763264 -66.45624084 259.16525223 -66.45011397 242.1428508 C-66.44493172 226.60751843 -66.45624625 211.07224851 -66.47521219 195.53692849 C-66.49462195 179.51341326 -66.50284229 163.48992755 -66.49908894 147.4664005 C-66.49718408 138.49853092 -66.49959588 129.53071467 -66.51380348 120.56285477 C-66.52575726 112.94220573 -66.52707634 105.32164303 -66.51501331 97.70099272 C-66.50915705 93.82225469 -66.50793475 89.94367431 -66.52001572 86.06494713 C-66.60630313 56.35814469 -66.60630313 56.35814469 -63.13548279 42.15390015 C-62.91271321 41.18301767 -62.68994364 40.2121352 -62.46042347 39.21183205 C-59.4017341 26.60111395 -51.32452895 15.99762653 -40.57298279 8.96640015 C-27.6998367 1.69545652 -14.50403678 0.00718872 0 0 Z " fill="#D9C6FE" transform="translate(583.1354827880859,562.8460998535156)"/>
<path d="M0 0 C3.38336734 1.57638678 6.77511429 3.13360329 10.16796875 4.68945312 C29.99226318 13.82604212 49.52108279 23.5530346 69.0428772 33.31436539 C70.51289274 34.04940096 71.98300465 34.78424383 73.45321655 35.51888657 C89.82888558 43.70157009 106.18071887 51.91409283 122.32421875 60.54882812 C123.55106789 61.20204883 124.77803315 61.85505151 126.00512695 62.5078125 C129.34352184 64.28703193 132.67842935 66.07256448 136.01171875 67.86132812 C136.59617767 68.17487244 137.1806366 68.48841675 137.7828064 68.8114624 C141.96446699 71.05504053 146.14447844 73.30167484 150.32421875 75.54882812 C151.38930664 76.12068848 152.45439453 76.69254883 153.55175781 77.28173828 C166.27998923 84.12009817 178.91924214 91.09591351 191.48046875 98.23632812 C196.50949884 101.09357734 201.55768461 103.91523193 206.6105957 106.72998047 C218.86912325 113.5625401 231.02130021 120.56052541 243.12109375 127.66992188 C246.50807155 129.65667349 249.90009766 131.63466865 253.29296875 133.61132812 C270.08630225 143.40258736 286.74653481 153.39710624 303.32421875 163.54882812 C304.47232477 164.25131182 305.62043675 164.95378578 306.76855469 165.65625 C320.69035617 174.17777312 334.55678747 182.78012484 348.32421875 191.54882812 C349.22301758 192.11972168 350.12181641 192.69061523 351.04785156 193.27880859 C364.08142323 201.56023477 377.04006051 209.95015049 389.94921875 218.42382812 C390.6079599 218.85613739 391.26670105 219.28844666 391.94540405 219.7338562 C404.96890062 228.28484658 417.95677735 236.88927707 430.82421875 245.67382812 C431.74364258 246.30144043 432.66306641 246.92905273 433.61035156 247.57568359 C449.60662938 258.51324005 465.49995393 269.58204549 481.16796875 280.98535156 C483.33892862 282.55949412 485.51770246 284.12216701 487.69921875 285.68164062 C499.42083404 294.07195836 510.89319255 302.76791804 522.32421875 311.54882812 C523.56621146 312.49960347 524.80837626 313.45015409 526.05078125 314.40039062 C536.72167917 322.5713579 547.31666603 330.83606604 557.69140625 339.38085938 C559.44151401 340.82197185 561.19671487 342.25692216 562.95703125 343.68554688 C573.2448564 352.038781 583.30566635 360.64860365 593.1171875 369.55664062 C595.06047876 371.31076194 597.02781323 373.02855506 599.01171875 374.73632812 C609.13546424 383.58956373 618.80154769 392.93173487 628.32421875 402.42382812 C629.1128833 403.20790039 629.90154785 403.99197266 630.71411133 404.79980469 C635.45617055 409.55446102 639.9760144 414.43239429 644.32421875 419.54882812 C644.88318848 420.20109375 645.4421582 420.85335938 646.01806641 421.52539062 C709.08379679 495.54569089 714.29215359 612.0857445 732.91796875 863.42382812 C732.96694329 864.75703535 732.96694329 864.75703535 733.01690722 866.11717606 C734.46922887 905.93584579 734.79086386 945.722867 734.70992577 985.56454563 C734.69861454 991.77452541 734.70271752 997.98436139 734.71533203 1004.19433594 C734.79379063 1043.90880333 734.39129722 1083.56507171 732.9453125 1123.25585938 C732.89907785 1124.53470127 732.89907785 1124.53470127 732.85190916 1125.83937836 C729.67018774 1213.41527624 723.52462769 1301.17991 642.58984375 1569.07226562 C641.35987724 1570.41674625 640.13718871 1571.76878293 638.95678711 1573.15698242 C633.65729596 1579.37295752 627.90973351 1585.11489878 622.12719727 1590.8762207 C620.39028275 1592.60777512 618.65877986 1594.34461171 616.92773438 1596.08203125 C611.22669046 1601.78649768 605.46717305 1607.3170167 599.32421875 1612.54882812 C597.54851654 1614.16850629 595.77713568 1615.7929453 594.01171875 1617.42382812 C589.57171091 1621.47404104 585.00487594 1625.30416934 580.328125 1629.07617188 C576.82755085 1631.95765879 573.42150585 1634.93612209 570.01171875 1637.92382812 C564.0974633 1643.08944364 558.03893885 1648.01049654 551.83203125 1652.81835938 C548.86551262 1655.1163784 545.94138528 1657.46251745 543.0246582 1659.82324219 C534.1610161 1666.98812822 525.05500128 1673.8118161 515.91357422 1680.61669922 C513.34831426 1682.53084851 510.79014685 1684.45406431 508.234375 1686.38085938 C491.6902094 1698.85022565 474.88754864 1710.91158068 457.89160156 1722.75634766 C455.26928612 1724.58718067 452.65159659 1726.42445405 450.03515625 1728.26367188 C449.1622998 1728.87670166 448.28944336 1729.48973145 447.39013672 1730.12133789 C445.75044324 1731.27317966 444.11138223 1732.42592263 442.47314453 1733.57983398 C436.16012003 1738.00938146 429.74933766 1742.28407511 423.32421875 1746.54882812 C421.48776568 1747.77592146 419.65181668 1749.00376957 417.81640625 1750.23242188 C386.97935421 1770.85051988 355.84345383 1790.98900119 324.32421875 1810.54882812 C323.31343262 1811.17724609 322.30264648 1811.80566406 321.26123047 1812.453125 C304.29650565 1822.99088565 287.16865623 1833.23643418 269.97363281 1843.39208984 C266.7518258 1845.29521693 263.5335052 1847.20415703 260.31640625 1849.11523438 C222.53081281 1871.54357456 184.226156 1893.10036897 145.4921875 1913.84570312 C142.44073906 1915.48618589 139.39690222 1917.13986442 136.35546875 1918.79882812 C92.66643301 1942.58574983 48.12338905 1965.45521558 2.80273438 1985.96777344 C-1.10955905 1987.74598878 -5.01014876 1989.54856813 -8.91015625 1991.35351562 C-80.89243451 2024.61655189 -156.14749767 2056.88257745 -234.67578125 2070.54882812 C-235.49852539 2070.69433105 -236.32126953 2070.83983398 -237.16894531 2070.98974609 C-307.88558494 2082.96672082 -386.68906095 2048.89340179 -450.67578125 2022.54882812 C-452.22441629 2021.91398851 -453.7730818 2021.27922324 -455.32177734 2020.64453125 C-480.71083707 2010.21803986 -505.76313385 1999.06337471 -530.67578125 1987.54882812 C-531.4699646 1987.18202942 -532.26414795 1986.81523071 -533.08239746 1986.43731689 C-556.60109102 1975.5604267 -579.81202734 1964.06992001 -602.98828125 1952.48632812 C-603.99522285 1951.98329918 -603.99522285 1951.98329918 -605.02250671 1951.47010803 C-619.96268628 1944.00563149 -634.87407036 1936.49847501 -649.61483765 1928.64511108 C-652.32409985 1927.20396637 -655.0397686 1925.77513885 -657.75547791 1924.34619141 C-671.37514838 1917.17595324 -684.93681275 1909.93372919 -698.2980957 1902.28955078 C-705.33830627 1898.27139703 -712.46030252 1894.42452604 -719.61328125 1890.61132812 C-731.20225772 1884.42096987 -742.5457617 1877.86565164 -753.86328125 1871.1953125 C-758.21529993 1868.64756823 -762.60199169 1866.16193266 -766.98828125 1863.67382812 C-779.65143696 1856.46974346 -792.16447871 1849.01224918 -804.67578125 1841.54882812 C-805.73877441 1840.91541504 -806.80176758 1840.28200195 -807.89697266 1839.62939453 C-870.4313887 1802.3419735 -931.95333003 1763.12103063 -991.44238281 1721.12353516 C-993.62875116 1719.58198773 -995.81956809 1718.04698216 -998.01171875 1716.51367188 C-1007.87513554 1709.60281714 -1017.58863591 1702.50202611 -1027.26416016 1695.33105469 C-1029.66031786 1693.56025582 -1032.06326369 1691.79911641 -1034.46875 1690.04101562 C-1044.65102635 1682.59191496 -1054.680448 1674.97342668 -1064.60058594 1667.17871094 C-1066.57340525 1665.62923544 -1068.54974426 1664.08438302 -1070.52734375 1662.54101562 C-1076.75929958 1657.67120398 -1082.93763093 1652.74524566 -1089.04296875 1647.71679688 C-1090.79307651 1646.2756844 -1092.54827737 1644.84073409 -1094.30859375 1643.41210938 C-1104.5964189 1635.05887525 -1114.65722885 1626.4490526 -1124.46875 1617.54101562 C-1126.41204126 1615.78689431 -1128.37937573 1614.06910119 -1130.36328125 1612.36132812 C-1140.48702674 1603.50809252 -1150.15311019 1594.16592138 -1159.67578125 1584.67382812 C-1160.4644458 1583.88975586 -1161.25311035 1583.10568359 -1162.06567383 1582.29785156 C-1166.80773305 1577.54319523 -1171.3275769 1572.66526196 -1175.67578125 1567.54882812 C-1176.23475098 1566.8965625 -1176.7937207 1566.24429687 -1177.36962891 1565.57226562 C-1189.58924088 1551.23009688 -1199.86192004 1536.73103222 -1207.67578125 1519.54882812 C-1207.97049316 1518.90284668 -1208.26520508 1518.25686523 -1208.56884766 1517.59130859 C-1244.51538479 1437.50763061 -1249.53527015 1340.07587125 -1263.36328125 1145.29882812 C-1263.40950434 1144.23804802 -1263.40950434 1144.23804802 -1263.45666122 1143.15583801 C-1264.89802545 1109.94922523 -1265.83921496 1076.77783339 -1265.87596989 1043.53974009 C-1265.87897548 1040.93412369 -1265.8830916 1038.32851099 -1265.88747406 1035.72289658 C-1265.90107569 1027.41266034 -1265.91076692 1019.10243341 -1265.91467595 1010.79218686 C-1265.91864907 1002.41137372 -1265.93066201 994.03067654 -1265.95703125 985.64990234 C-1266.08260576 944.81390169 -1265.7876267 904.04032924 -1264.27734375 863.22851562 C-1264.22960107 861.93359247 -1264.22960107 861.93359247 -1264.1808939 860.61250925 C-1260.47032839 760.62090878 -1253.85681228 659.77074547 -1193.67578125 442.54882812 C-1193.22332031 441.90993652 -1192.77085938 441.27104492 -1192.3046875 440.61279297 C-1185.82730472 431.53085281 -1178.84847719 423.18258947 -1171.14233398 415.12670898 C-1169.54788573 413.41122387 -1168.0274806 411.64390623 -1166.50390625 409.86523438 C-1162.28076994 405.00894506 -1157.74615661 400.46878185 -1153.18774414 395.93041992 C-1151.7405374 394.48857591 -1150.29876099 393.04145697 -1148.85742188 391.59375 C-1144.19382622 386.92680711 -1139.47224496 382.38312371 -1134.46118164 378.08911133 C-1131.68778664 375.69647505 -1129.03436072 373.17925599 -1126.36328125 370.67382812 C-1121.56928985 366.21378457 -1116.65067129 361.98573259 -1111.54296875 357.88476562 C-1108.25999907 355.21008461 -1105.06308538 352.44681533 -1101.86328125 349.67382812 C-1096.70619861 345.22039982 -1091.44450979 340.9402209 -1086.06274414 336.76196289 C-1082.2688757 333.81339589 -1078.52791879 330.80937395 -1074.81298828 327.76196289 C-1066.98513638 321.34069297 -1058.99140269 315.19609203 -1050.85644531 309.17041016 C-1048.515569 307.42969134 -1046.18463583 305.67627474 -1043.85546875 303.91992188 C-1033.61962516 296.20370119 -1023.30505634 288.61272551 -1012.88916016 281.14160156 C-1010.66008412 279.53753229 -1008.43842605 277.92368749 -1006.21875 276.30664062 C-996.29445009 269.08404592 -986.24021296 262.07981362 -976.08447266 255.18701172 C-973.64588074 253.52849238 -971.2127198 251.86230009 -968.78125 250.19335938 C-967.56103149 249.35611328 -967.56103149 249.35611328 -966.31616211 248.50195312 C-964.80490297 247.46470857 -963.293957 246.42700746 -961.78344727 245.38867188 C-949.40050277 236.90232079 -936.85088473 228.6600314 -924.30078125 220.42382812 C-923.61456696 219.97339142 -922.92835266 219.52295471 -922.22134399 219.05886841 C-909.10432538 210.45281664 -895.92026881 201.9576527 -882.67578125 193.54882812 C-881.82773926 193.00967773 -880.97969727 192.47052734 -880.10595703 191.91503906 C-852.25306817 174.21713749 -824.09664843 156.98604229 -795.63427734 140.28564453 C-792.96319033 138.71755467 -790.29395945 137.14634793 -787.62532043 135.57409668 C-754.31586261 115.95376724 -720.66809984 96.96375679 -686.67578125 78.54882812 C-685.65129883 77.99340332 -684.62681641 77.43797852 -683.57128906 76.86572266 C-670.31120025 69.68267364 -657.01074206 62.5860901 -643.62451172 55.64086914 C-639.92783884 53.72180573 -636.23524764 51.79542039 -632.54833984 49.85766602 C-618.34559802 42.39959758 -604.04678148 35.14041163 -589.69848633 27.9675293 C-587.23257271 26.73461302 -584.76809309 25.4989034 -582.30493164 24.26049805 C-564.57725359 15.34843696 -546.71676814 6.81117051 -528.67578125 -1.45117188 C-526.86200933 -2.28640073 -525.04843624 -3.12206155 -523.23510742 -3.95825195 C-476.64368927 -25.41364056 -429.37429126 -45.25837303 -380.67578125 -61.45117188 C-379.55445801 -61.82580566 -378.43313477 -62.20043945 -377.27783203 -62.58642578 C-350.77248897 -71.40184363 -324.17629416 -78.55726114 -296.67578125 -83.45117188 C-295.42643799 -83.67377686 -295.42643799 -83.67377686 -294.15185547 -83.90087891 C-210.44205041 -98.06309193 -113.83630745 -50.72527813 0 0 Z M-499.74127197 55.64373779 C-501.0710577 56.26589878 -502.40111008 56.88749007 -503.73138428 57.50860596 C-525.63681751 67.73737434 -547.36481118 78.29901388 -568.98828125 89.11132812 C-570.08235291 89.65791077 -571.17642456 90.20449341 -572.3036499 90.76763916 C-585.84511418 97.53900849 -599.31527596 104.42683731 -612.67578125 111.54882812 C-613.2947226 111.87833466 -613.91366394 112.20784119 -614.55136108 112.54733276 C-618.40956237 114.6024808 -622.2622923 116.66770392 -626.11328125 118.73632812 C-628.52201572 120.02951993 -630.93091773 121.32239943 -633.33984375 122.61523438 C-634.24797569 123.10277191 -634.24797569 123.10277191 -635.17445374 123.60015869 C-639.40734525 125.8715505 -643.64581335 128.13228485 -647.88671875 130.38867188 C-660.63305329 137.1755071 -673.29242812 144.09097352 -685.83984375 151.24023438 C-691.09369374 154.22998935 -696.37872946 157.16094169 -701.66992188 160.08398438 C-713.42764743 166.57974427 -725.08230426 173.22524017 -736.6640625 180.02929688 C-741.81739188 183.05515912 -746.99701809 186.0329877 -752.18286133 189.00268555 C-766.09630242 196.97701567 -779.80758807 205.25260767 -793.49169922 213.61083984 C-798.01727347 216.365326 -802.56428255 219.08327309 -807.11328125 221.79882812 C-822.96366375 231.2806525 -838.61423945 241.0872266 -854.20849609 250.98339844 C-856.78631574 252.61895945 -859.36584291 254.25180825 -861.9453125 255.88476562 C-906.00486708 283.8115623 -949.56098285 312.75660578 -991.67578125 343.54882812 C-992.44873535 344.11311523 -993.22168945 344.67740234 -994.01806641 345.25878906 C-1005.35190469 353.54147585 -1016.5673051 361.96648504 -1027.67578125 370.54882812 C-1028.43842285 371.13728516 -1029.20106445 371.72574219 -1029.98681641 372.33203125 C-1041.81831196 381.4688872 -1053.4652291 390.78039507 -1064.84765625 400.47241211 C-1068.18305708 403.30760138 -1071.56560557 406.0688979 -1074.98828125 408.79882812 C-1081.24325511 413.88328056 -1087.03944174 419.4375975 -1092.88671875 424.97851562 C-1095.83159087 427.76648287 -1098.82281643 430.4898999 -1101.86328125 433.17382812 C-1110.66327277 441.03733406 -1119.1752849 449.42872774 -1126.67578125 458.54882812 C-1127.10713379 459.06638672 -1127.53848633 459.58394531 -1127.98291016 460.1171875 C-1184.14620138 527.70066047 -1185.31351537 640.65751549 -1197.5279541 808.62402344 C-1197.66897811 811.41422587 -1197.8139842 814.20419354 -1197.95996094 816.99414062 C-1202.8430001 911.37051503 -1203.12947736 1006.16299833 -1165.67578125 1447.54882812 C-1165.39911621 1448.6511377 -1165.12245117 1449.75344727 -1164.83740234 1450.88916016 C-1154.35860413 1492.04059221 -1135.50057664 1519.96218164 -1105.74975586 1549.60522461 C-1103.97587122 1551.37370032 -1102.20746348 1553.14752856 -1100.43945312 1554.921875 C-1094.68821782 1560.6768795 -1088.90964252 1566.31153951 -1082.67578125 1571.54882812 C-1081.54607975 1572.52186393 -1080.41715696 1573.49580465 -1079.2890625 1574.47070312 C-1076.35438628 1576.98808313 -1073.4153971 1579.50042171 -1070.47509766 1582.01123047 C-1069.31495865 1583.00262198 -1068.1557103 1583.99505717 -1066.99755859 1584.98876953 C-1059.35184958 1591.54847956 -1051.55918631 1597.87770251 -1043.60058594 1604.05371094 C-1041.57294188 1605.62870995 -1039.54985892 1607.20943679 -1037.52734375 1608.79101562 C-1021.84706042 1621.04046842 -1006.15340992 1633.25608051 -989.828125 1644.63867188 C-985.52929611 1647.63801983 -981.29024646 1650.71643243 -977.05078125 1653.79882812 C-957.55790839 1667.91333853 -937.61792294 1681.33773988 -917.56599426 1694.63883972 C-913.63789224 1697.2445027 -909.71393631 1699.85624084 -905.79364014 1702.47363281 C-899.02663928 1706.99143798 -892.24226942 1711.48087296 -885.42578125 1715.92382812 C-884.44834961 1716.56102783 -883.47091797 1717.19822754 -882.46386719 1717.85473633 C-874.01452201 1723.35065255 -865.50621668 1728.74829808 -856.96875 1734.10595703 C-854.66900384 1735.55309287 -852.37474515 1737.00854909 -850.08203125 1738.46679688 C-838.7527857 1745.66709285 -827.31636709 1752.67942559 -815.83447266 1759.63330078 C-812.53263212 1761.63563815 -809.23465755 1763.64426375 -805.9375 1765.65429688 C-765.15856439 1790.50240757 -723.90864894 1814.5633404 -682.10742188 1837.65136719 C-679.2129155 1839.25182988 -676.32075039 1840.85640832 -673.4299469 1842.46354675 C-646.60107756 1857.3760818 -619.46768872 1871.68827361 -592.1796875 1885.74023438 C-588.68494154 1887.5440999 -585.19514879 1889.35718198 -581.70703125 1891.17382812 C-560.63892129 1902.14533765 -539.44881646 1912.82412742 -517.9765625 1922.98388672 C-515.65447065 1924.08481932 -513.33407585 1925.18882556 -511.015625 1926.29736328 C-393.65246809 1985.08704525 -393.65246809 1985.08704525 -162.171875 1986.23632812 C-137.65847616 1977.51336409 -113.59445148 1967.77951494 -89.67578125 1957.54882812 C-88.93094482 1957.23044983 -88.1861084 1956.91207153 -87.41870117 1956.58404541 C-68.67404097 1948.56171879 -50.10648852 1940.17782585 -31.66308594 1931.48388672 C-29.57753469 1930.50260155 -27.49015529 1929.52529449 -25.40234375 1928.54882812 C-4.24465864 1918.64924306 16.74379624 1908.43334869 37.63671875 1897.98632812 C38.73097168 1897.43965485 39.82522461 1896.89298157 40.95263672 1896.32974243 C54.49391773 1889.55846473 67.96389428 1882.67072255 81.32421875 1875.54882812 C81.9431601 1875.21932159 82.56210144 1874.88981506 83.19979858 1874.55032349 C87.05799987 1872.49517545 90.9107298 1870.42995233 94.76171875 1868.36132812 C97.17045322 1867.06813632 99.57935523 1865.77525682 101.98828125 1864.48242188 C102.59370255 1864.15739685 103.19912384 1863.83237183 103.82289124 1863.49749756 C108.05578275 1861.22610575 112.29425085 1858.9653714 116.53515625 1856.70898438 C129.28149079 1849.92214915 141.94086562 1843.00668273 154.48828125 1835.85742188 C159.7422894 1832.8675769 165.02747906 1829.936528 170.31884766 1827.01342773 C183.12258498 1819.93968518 195.79980165 1812.67716171 208.40771484 1805.26074219 C211.27799868 1803.57595814 214.15346158 1801.90044412 217.03125 1800.22851562 C240.07707262 1786.83850207 263.04973065 1773.32585489 285.65722656 1759.20605469 C288.59866964 1757.3782887 291.55017231 1755.56759971 294.50390625 1753.75976562 C308.54207502 1745.16679404 322.45747539 1736.40470459 336.29443359 1727.49169922 C339.16715502 1725.64954635 342.04979903 1723.8244168 344.9375 1722.00585938 C375.97054737 1702.41094232 406.34106544 1681.62318791 436.38671875 1660.54882812 C437.207771 1659.97326172 438.02882324 1659.39769531 438.87475586 1658.8046875 C447.417731 1652.80156011 455.88805613 1646.70091654 464.32421875 1640.54882812 C465.09620605 1639.98695801 465.86819336 1639.42508789 466.66357422 1638.84619141 C477.6808694 1630.81817261 488.5302333 1622.60096501 499.24902344 1614.17871094 C501.22184275 1612.62923544 503.19818176 1611.08438302 505.17578125 1609.54101562 C515.11955672 1601.77127471 524.88713437 1593.80764282 534.49511719 1585.62597656 C537.83092329 1582.79063989 541.21372579 1580.02901141 544.63671875 1577.29882812 C550.82049678 1572.26719506 556.56406677 1566.79050791 562.34375 1561.30664062 C564.77442202 1559.00120093 567.22138292 1556.7202245 569.7109375 1554.47851562 C642.65287125 1488.77297305 648.76058601 1388.86784486 665.96287537 1182.78948975 C670.55987464 1093.77987334 671.63961608 1004.54149413 593.13671875 456.79882812 C591.53646966 455.04524506 589.93181197 453.29568094 588.32421875 451.54882812 C587.80698242 450.98115723 587.28974609 450.41348633 586.75683594 449.82861328 C579.43335066 441.79647186 571.96630113 434.14063301 563.84375 426.91552734 C562.23586362 425.46935961 560.65293494 423.99942147 559.07421875 422.52148438 C553.27153491 417.08971315 547.39314541 411.86413301 541.19140625 406.88476562 C537.9084336 404.21008218 534.71158287 401.44674966 531.51171875 398.67382812 C525.17648541 393.20512923 518.6583536 388.0103989 512.04345703 382.88574219 C510.37910525 381.59150897 508.72315163 380.28740847 507.0703125 378.97851562 C491.50420828 366.65496349 475.68590584 354.68012772 459.53466797 343.13427734 C457.27205727 341.5114152 455.01776726 339.87758839 452.765625 338.24023438 C445.12919903 332.69077182 437.45915342 327.20613727 429.65942383 321.88818359 C425.96999314 319.37199982 422.29919277 316.83347128 418.65234375 314.25585938 C405.81251733 305.20182147 392.76284717 296.49362472 379.63671875 287.86132812 C378.78079132 287.29841064 377.92486389 286.73549316 377.04299927 286.15551758 C367.58827195 279.94150212 358.11634855 273.75393626 348.6328125 267.58398438 C347.83490799 267.06459793 347.03700348 266.54521149 346.21492004 266.01008606 C339.29912175 261.51608041 332.34252966 257.08745649 325.35546875 252.70507812 C324.5459375 252.1971875 323.73640625 251.68929688 322.90234375 251.16601562 C321.62617188 250.36550781 321.62617188 250.36550781 320.32421875 249.54882812 C319.40125 248.96875 318.47828125 248.38867188 317.52734375 247.79101562 C303.88818303 239.22095474 290.18418785 230.76616802 276.40673828 222.42041016 C273.70243912 220.77846834 271.00171393 219.13083528 268.30293274 217.47984314 C253.03152256 208.13763876 237.64246986 199.04921763 222.10693359 190.15039062 C218.37026977 187.99979274 214.65790101 185.809702 210.94921875 183.61132812 C193.73419233 173.43191389 176.31501652 163.58160382 158.80419922 153.92138672 C155.91250329 152.32096198 153.02644081 150.71061245 150.140625 149.09960938 C135.68451361 141.03467625 121.16466754 133.10122536 106.56933594 125.29052734 C103.39147848 123.58492735 100.22036129 121.86740948 97.05078125 120.14648438 C75.83773939 108.65909786 54.34012893 97.72939934 32.82647705 86.81817627 C30.55678478 85.66680446 28.28779608 84.51406076 26.01904297 83.36083984 C11.18406605 75.82571807 -3.78078131 68.63937122 -18.8984375 61.68945312 C-24.22861326 59.23320662 -29.51870412 56.70473941 -34.79541016 54.13598633 C-51.21969879 46.14532308 -67.90225641 38.77097312 -84.67578125 31.54882812 C-85.40170471 31.23625061 -86.12762817 30.9236731 -86.87554932 30.60162354 C-176.6262822 -7.97235123 -255.4112051 -36.00002945 -499.74127197 55.64373779 Z " fill="#DAC7FF" transform="translate(1265.67578125,131.451171875)"/>
<path d="M0 0 C1.08938167 -0.00438225 2.17876334 -0.00876451 3.30115658 -0.01327956 C6.93482747 -0.02658509 10.56847416 -0.03282777 14.2021637 -0.03897095 C16.81464749 -0.0468784 19.42713022 -0.05514774 22.03961182 -0.06375122 C29.86544652 -0.08817643 37.69128734 -0.10288625 45.51714835 -0.11581129 C47.73120791 -0.11952996 49.94526688 -0.12350261 52.15932584 -0.12756395 C65.93943196 -0.15280336 79.71953924 -0.1748333 93.49966335 -0.1872921 C96.68532757 -0.19022126 99.87099175 -0.19318301 103.05665588 -0.19619751 C103.84832954 -0.19694356 104.6400032 -0.19768961 105.45566697 -0.19845827 C118.26612464 -0.2110987 131.07644312 -0.24431062 143.88683581 -0.28599934 C157.06993319 -0.32854579 170.25295953 -0.35200157 183.43612534 -0.35721266 C190.82549755 -0.36061201 198.21465205 -0.37219175 205.60395622 -0.4053154 C211.89957734 -0.43349227 218.194936 -0.44423869 224.49061524 -0.43311994 C227.69509227 -0.42797815 230.89891336 -0.43332376 234.10333252 -0.45558548 C255.55759611 -0.59642027 276.26215831 1.28762279 292.72779846 16.6890564 C309.11146997 35.58868477 308.16232864 59.3483214 308.15162659 82.88534546 C308.15765833 85.58724079 308.16448327 88.28912304 308.17233276 90.99101257 C308.1877115 96.78841584 308.19618084 102.58579499 308.20004272 108.38321686 C308.20582379 116.78466952 308.22446458 125.18605789 308.24648327 133.58748195 C308.28212222 147.24779438 308.3104674 160.90811048 308.33277893 174.56845093 C308.33411392 175.38421261 308.33544891 176.19997429 308.33682436 177.04045603 C308.34624836 182.82827043 308.35541105 188.61608524 308.36451721 194.40390015 C308.37491186 201.0085554 308.38543091 207.61321043 308.39625549 214.21786499 C308.39758624 215.03140738 308.39891698 215.84494977 308.40028805 216.68314496 C308.42278743 230.29130297 308.45301363 243.89943356 308.48864794 257.50756335 C308.51019706 265.87831099 308.52490091 274.24901594 308.5304867 282.61978975 C308.53476302 288.36424501 308.54607635 294.10865963 308.56271064 299.85309228 C308.57202955 303.15664333 308.57715455 306.4600545 308.57564735 309.76362801 C308.56391173 345.76741281 315.37494173 369.85653161 335.41149902 399.95750427 C339.47444993 406.06143263 343.48247908 412.20061882 347.48951721 418.34140015 C348.90603977 420.50816103 350.32270522 422.67482851 351.73951721 424.84140015 C356.27322021 431.77779592 360.80215281 438.7172978 365.32618713 445.66000366 C368.49629067 450.52482993 371.67072716 455.38673542 374.85279846 460.2437439 C385.82271191 477.00139014 385.82271191 477.00139014 390.48951721 484.65390015 C391.39250549 486.1234314 391.39250549 486.1234314 392.31373596 487.62265015 C393.26635366 489.17755259 394.20886837 490.73876735 395.13404846 492.31015015 C398.34328332 497.37623327 402.37873092 499.99699214 407.86451721 502.15390015 C411.89101795 502.81418668 415.79278111 502.81079503 419.86451721 502.71640015 C420.89318909 502.72735718 421.92186096 502.73831421 422.98170471 502.74960327 C430.83306031 502.67468576 436.935827 501.1639414 443.21998596 496.34921265 C450.58735984 488.02360891 456.20404037 478.50845653 462.04273987 469.08407593 C464.90525898 464.47995447 467.82317375 459.91154145 470.73951721 455.34140015 C471.90624752 453.50810732 473.07291329 451.6747734 474.23951721 449.84140015 C482.1396861 437.43916996 490.07818439 425.0613526 498.01295471 412.6812439 C501.34886949 407.4761108 504.67797653 402.26666059 508.00563049 397.0562439 C509.78276024 394.28155012 511.57040278 391.51391763 513.36061096 388.74765015 C525.45077004 369.98469147 532.21552174 352.63829026 532.11607361 330.02572632 C532.11904375 328.86577211 532.12201389 327.70581791 532.12507403 326.51071358 C532.13266184 322.65604718 532.12624136 318.80153553 532.11988831 314.9468689 C532.12151304 312.16969949 532.12620457 309.39253748 532.13085938 306.6153717 C532.13946132 300.64877522 532.1413079 294.68220837 532.1389122 288.71560669 C532.13580079 280.06731012 532.14750232 271.41907839 532.163462 262.77079821 C532.18938441 248.70791222 532.20942178 234.64502618 532.22291565 220.5821228 C532.22372602 219.74182982 532.22453639 218.90153684 532.22537132 218.03578043 C532.23657912 206.12639976 532.24187141 194.21702376 532.24475844 182.30763853 C532.24496243 181.46977107 532.24516642 180.63190362 532.24537659 179.76864624 C532.24567649 178.51339675 532.24567649 178.51339675 532.24598245 177.23278868 C532.24972813 163.22916328 532.2689006 149.22560833 532.30047095 135.22201824 C532.31928347 126.60721887 532.32541053 117.99260106 532.31465377 109.37778693 C532.30828744 103.46226507 532.31650663 97.54687242 532.33570789 91.63137883 C532.34628618 88.23024141 532.34848395 84.8296763 532.3372364 81.42850304 C532.26499883 57.64972768 532.82452357 33.41824547 550.43482971 15.33358765 C564.23955808 2.94928149 580.76466662 -0.00247676 598.73666382 0.01345825 C600.32808379 0.00900157 600.32808379 0.00900157 601.95165366 0.00445485 C605.48877841 -0.00418178 609.02586911 -0.0057361 612.56300354 -0.00723267 C615.10640535 -0.0118643 617.64980647 -0.01688943 620.19320679 -0.02227783 C627.08995409 -0.0353681 633.98669028 -0.04187714 640.88344789 -0.04628849 C645.1951238 -0.04905879 649.5067975 -0.05329745 653.81847191 -0.05779266 C665.77275482 -0.06997654 677.72703597 -0.08027885 689.68132496 -0.08366776 C690.44506905 -0.08388732 691.20881314 -0.08410689 691.995701 -0.08433311 C692.76118906 -0.08455138 693.52667713 -0.08476966 694.3153618 -0.08499455 C695.86633353 -0.08543801 697.41730525 -0.08588457 698.96827698 -0.08633423 C700.12226088 -0.08666637 700.12226088 -0.08666637 701.29955759 -0.08700523 C713.76483518 -0.09095317 726.23005431 -0.10841104 738.69530932 -0.13169375 C751.51451518 -0.15544309 764.33369174 -0.16787117 777.15291995 -0.16903567 C784.34194707 -0.16995021 791.53089792 -0.17564698 798.71990395 -0.19385529 C805.4824811 -0.2109243 812.24488916 -0.21248227 819.00749016 -0.20371628 C821.48418694 -0.20294699 823.96089155 -0.20727427 826.43756866 -0.21717453 C829.82902298 -0.22993273 833.21996824 -0.2239959 836.61141968 -0.21359253 C838.06724975 -0.22567714 838.06724975 -0.22567714 839.55249053 -0.23800588 C854.58355363 -0.13080926 870.78510039 4.77239935 881.86451721 15.15390015 C882.47811096 15.7262439 883.09170471 16.29858765 883.72389221 16.88827515 C892.84195808 26.32910441 896.93837814 38.44138228 898.86451721 51.15390015 C899.03723302 52.27513118 899.20994883 53.39636221 899.38789845 54.55156994 C900.10570423 60.40041687 900.00576334 66.2585089 899.99822998 72.14274597 C900.00162832 74.09443798 900.00162832 74.09443798 900.0050953 76.08555812 C900.01119137 79.68262657 900.01108225 83.27967171 900.00990093 86.87674415 C900.00969632 90.76347513 900.01522203 94.65019875 900.0199585 98.53692627 C900.02825796 106.15296864 900.03101319 113.76900328 900.03157087 121.3850498 C900.03204719 127.59165365 900.03410775 133.79825497 900.0372715 140.00485802 C900.04608287 157.6543176 900.05069113 175.30377112 900.04994103 192.95323292 C900.04988109 194.37985446 900.04988109 194.37985446 900.04981995 195.83529663 C900.04975863 197.26369217 900.04975863 197.26369217 900.04969607 198.72094419 C900.04929138 214.08390112 900.05881451 229.44683333 900.07295831 244.80978314 C900.08741162 260.63603083 900.09422335 276.46226655 900.09336454 292.28852099 C900.09303521 301.15222032 900.09566322 310.01589386 900.10654259 318.87958717 C900.11576707 326.44316952 900.11772779 334.00671447 900.11103316 341.57030008 C900.1078244 345.41259839 900.10749845 349.25482548 900.11638641 353.09711647 C900.15069689 368.98818028 899.8673686 384.81646157 898.97433472 400.68495178 C898.93547015 401.39377728 898.89660558 402.10260278 898.85656329 402.83290783 C895.30769602 466.06608727 872.00104258 513.478871 834.66285706 563.7305603 C831.71932927 567.69708987 828.79272978 571.67605934 825.86451721 575.65390015 C824.7005157 577.23337218 823.53645312 578.81279921 822.37232971 580.3921814 C820.01108524 583.59653912 817.65193175 586.80242231 815.29420471 590.0093689 C809.36641996 598.06907623 803.41283754 606.10714917 797.3986969 614.10263062 C791.76142636 621.60596794 786.20580442 629.16920555 780.64674377 636.7305603 C777.72220975 640.70712533 774.79316288 644.68036286 771.86451721 648.65390015 C770.69782833 650.23721711 769.53116168 651.82055045 768.36451721 653.40390015 C761.36451721 662.90390015 754.36451721 672.40390015 747.36451721 681.90390015 C746.49802551 683.0798877 746.49802551 683.0798877 745.61402893 684.27963257 C744.44907872 685.86058997 743.28403987 687.44148206 742.11891174 689.02230835 C739.17524741 693.01645843 736.23320376 697.01178445 733.29420471 701.0093689 C727.36641996 709.06907623 721.41283754 717.10714917 715.3986969 725.10263062 C709.76142636 732.60596794 704.20580442 740.16920555 698.64674377 747.7305603 C695.72220975 751.70712533 692.79316288 755.68036286 689.86451721 759.65390015 C688.69782833 761.23721711 687.53116168 762.82055045 686.36451721 764.40390015 C684.03118388 767.57056681 681.69785055 770.73723348 679.36451721 773.90390015 C678.49802551 775.0798877 678.49802551 775.0798877 677.61402893 776.27963257 C676.44907872 777.86058997 675.28403987 779.44148206 674.11891174 781.02230835 C671.17524741 785.01645843 668.23320376 789.01178445 665.29420471 793.0093689 C659.36641996 801.06907623 653.41283754 809.10714917 647.3986969 817.10263062 C641.77779407 824.58418214 636.2380313 832.12526184 630.69508362 839.66464233 C627.52496867 843.97545749 624.35091748 848.28337169 621.17701721 852.59140015 C620.58872131 853.3903772 620.00042542 854.18935425 619.39430237 855.01254272 C618.84435608 855.75915161 618.29440979 856.5057605 617.72779846 857.2749939 C617.24609192 857.92911255 616.76438538 858.5832312 616.26808167 859.25717163 C614.86451721 861.15390015 614.86451721 861.15390015 613.30045319 862.77861786 C611.27696113 866.12581782 611.45103471 869.25875354 611.48597717 873.05514526 C611.48144704 873.85707857 611.47691691 874.65901187 611.47224951 875.48524618 C611.46060943 878.17639419 611.4702795 880.86704665 611.47975159 883.55819702 C611.47564674 885.48690614 611.47018638 887.41561278 611.46347046 889.34431458 C611.45173059 893.50275066 611.4492668 897.66105395 611.4538269 901.81950378 C611.46063916 908.41195428 611.44475931 915.00423064 611.4254303 921.59664917 C611.38753356 935.61572337 611.37479412 949.63478262 611.36451721 963.65390015 C611.3534299 978.73506297 611.33782177 993.81614525 611.29380465 1008.89725351 C611.2755803 1015.43153373 611.27150956 1021.96561478 611.27873993 1028.49991417 C611.28027805 1032.59699474 611.26937508 1036.69397876 611.25536156 1040.79103279 C611.25140845 1042.66932368 611.25239736 1044.54763371 611.25913429 1046.42591667 C611.29086628 1056.02270267 610.91771649 1065.38688389 609.53578186 1074.89450073 C609.36302097 1076.09877771 609.36302097 1076.09877771 609.18676996 1077.32738352 C606.72563409 1092.63933545 599.50207625 1104.57032619 587.11451721 1113.96640015 C568.37198207 1126.18354345 546.03323477 1125.59693525 524.53346252 1125.5262146 C521.92301285 1125.52864736 519.31256412 1125.53237135 516.70211792 1125.53727722 C510.39120657 1125.54668853 504.08041086 1125.5402341 497.76950821 1125.52801428 C490.40131867 1125.51428669 483.03315562 1125.51604145 475.66495654 1125.51814761 C462.51026183 1125.52132607 449.35562156 1125.50973414 436.20094299 1125.49008179 C423.46948084 1125.47106703 410.7380824 1125.46399974 398.00660706 1125.46957397 C384.09822435 1125.47564559 370.18986954 1125.47543061 356.28148913 1125.46408814 C354.79582644 1125.462881 353.31016374 1125.46167502 351.82450104 1125.4604702 C351.09376334 1125.45986666 350.36302565 1125.45926312 349.61014439 1125.45864129 C344.48738459 1125.45477961 339.36463524 1125.45514888 334.24187469 1125.45705605 C327.33719271 1125.45941208 320.43259325 1125.45077522 313.52792931 1125.43499565 C311.00208306 1125.4307723 308.47622855 1125.42988904 305.95038033 1125.43268585 C282.83468645 1125.4543892 258.52638663 1125.26920838 240.55201721 1108.52890015 C232.13843958 1099.59530741 228.72012916 1088.8838754 225.86451721 1077.15390015 C225.68512698 1076.4371345 225.50573675 1075.72036886 225.32091045 1074.98188305 C224.71687424 1071.23904919 224.75911573 1067.5557253 224.80050659 1063.77726746 C224.80791651 1062.51584121 224.80791651 1062.51584121 224.81547612 1061.22893161 C224.82685947 1059.38795105 224.84058682 1057.54698386 224.85635185 1055.70603561 C224.89092348 1051.65898021 224.91415598 1047.61187878 224.93833864 1043.56475008 C224.95151589 1041.38490894 224.96530182 1039.20507141 224.97965205 1037.02523768 C225.07047557 1023.01669436 225.08825369 1009.00797005 225.11057913 994.99917948 C225.13288341 981.36708925 225.17753498 967.73598921 225.29298401 954.1043396 C225.38460263 943.27032567 225.42624812 932.43740341 225.41011876 921.60299605 C225.40341396 915.87598687 225.42110549 910.15149715 225.49936867 904.42496681 C225.57254795 899.02541407 225.57871687 893.6297129 225.53613281 888.22987175 C225.53200384 886.26194421 225.5512788 884.29378655 225.59731102 882.32639313 C225.92898938 867.27316031 221.76481724 859.25925907 211.66924322 848.2195133 C208.67292958 844.79005928 206.09224707 841.07299676 203.48951721 837.34140015 C202.89791809 836.51527222 202.30631897 835.68914429 201.6967926 834.83798218 C201.22749329 834.18168823 200.75819397 833.52539429 200.27467346 832.84921265 C195.92930023 826.82155374 191.3965961 820.93849777 186.87672424 815.04135132 C182.47547459 809.29085576 178.14248104 803.49659999 173.86451721 797.65390015 C168.93899181 790.92883927 163.93094169 784.27343763 158.86451721 777.65390015 C153.19220799 770.24107652 147.60304479 762.77461958 142.08326721 755.24765015 C137.88125627 749.52110009 133.63411353 743.83021031 129.36451721 738.15390015 C124.51242174 731.70317347 119.70040206 725.22556131 114.92701721 718.71640015 C109.31681881 711.07075561 103.58930291 703.52051933 97.82569885 695.99008179 C92.85778719 689.48786516 87.98865389 682.91927396 83.15357971 676.31796265 C78.79174427 670.37718225 74.3438145 664.50649098 69.86451721 658.65390015 C61.82321092 648.14250216 53.97391247 637.49758853 46.15553284 626.81991577 C38.81539604 616.80150785 31.38220227 606.86458672 23.83473206 597.00131226 C18.77473484 590.37775018 13.80456199 583.69309091 8.87672424 576.97079468 C5.69098537 572.62627404 2.48075282 568.30290696 -0.76756287 564.00497437 C-50.42620119 498.27529021 -66.51011449 437.07635649 -66.41159117 355.15951204 C-66.40906677 351.20331125 -66.41820611 347.24713166 -66.42562866 343.29093933 C-66.43821625 335.59250738 -66.44019024 327.89411054 -66.4378284 320.19567002 C-66.43602952 313.93415753 -66.437828 307.67265551 -66.44205284 301.41114426 C-66.44264803 300.51270961 -66.44324322 299.61427496 -66.44385644 298.68861502 C-66.44506842 296.862421 -66.44628255 295.03622699 -66.44749882 293.21003298 C-66.45830951 276.18763264 -66.45624084 259.16525223 -66.45011397 242.1428508 C-66.44493172 226.60751843 -66.45624625 211.07224851 -66.47521219 195.53692849 C-66.49462195 179.51341326 -66.50284229 163.48992755 -66.49908894 147.4664005 C-66.49718408 138.49853092 -66.49959588 129.53071467 -66.51380348 120.56285477 C-66.52575726 112.94220573 -66.52707634 105.32164303 -66.51501331 97.70099272 C-66.50915705 93.82225469 -66.50793475 89.94367431 -66.52001572 86.06494713 C-66.60630313 56.35814469 -66.60630313 56.35814469 -63.13548279 42.15390015 C-62.91271321 41.18301767 -62.68994364 40.2121352 -62.46042347 39.21183205 C-59.4017341 26.60111395 -51.32452895 15.99762653 -40.57298279 8.96640015 C-27.6998367 1.69545652 -14.50403678 0.00718872 0 0 Z M-38.63548279 27.77890015 C-49.57370953 39.93770154 -50.44427843 55.73415156 -50.38945007 71.27156067 C-50.39175974 72.65955822 -50.39493963 74.04755455 -50.39890456 75.43554837 C-50.40719353 79.21761575 -50.40315418 82.99958118 -50.39693213 86.78164876 C-50.39238356 90.87406205 -50.39940375 94.96645852 -50.40489197 99.05886841 C-50.41376611 107.06807027 -50.41187161 115.07723456 -50.40606669 123.08643787 C-50.40153704 129.60859845 -50.40094293 136.13074854 -50.40311432 142.65291023 C-50.40342078 143.58375885 -50.40372725 144.51460747 -50.404043 145.47366362 C-50.40468252 147.365302 -50.40533095 149.25694039 -50.40598819 151.14857877 C-50.41168709 168.8761084 -50.40514329 186.60361733 -50.39438745 204.33114357 C-50.3854774 219.48374277 -50.38698377 234.63631128 -50.39622498 249.78890991 C-50.40697881 267.42968041 -50.41111155 285.0704327 -50.40500045 302.71120602 C-50.40436345 304.60081136 -50.4037347 306.4904167 -50.40311432 308.38002205 C-50.40280577 309.30943493 -50.40249722 310.2388478 -50.40217932 311.1964247 C-50.40046575 317.68865224 -50.40333881 324.18086807 -50.40807343 330.6730938 C-50.41374047 338.61810306 -50.41204668 346.56307292 -50.40151194 354.50807779 C-50.39632837 358.54813242 -50.3940695 362.58812189 -50.40081024 366.62817574 C-50.43843383 391.24852941 -50.38707917 416.18990975 -45.82298279 440.46640015 C-45.60497009 441.66877319 -45.3869574 442.87114624 -45.16233826 444.10995483 C-43.47423378 453.08324345 -41.36895209 461.60896831 -38.13548279 470.15390015 C-37.90167908 470.79021362 -37.66787537 471.4265271 -37.42698669 472.0821228 C-28.20020968 496.9646177 -14.20262538 519.97378136 1.48365784 541.27841187 C3.00757749 543.34820514 4.52193431 545.42483111 6.03639221 547.5015564 C12.89978883 556.88636168 19.90225273 566.1568574 26.97242737 575.38656616 C31.73986849 581.62893078 36.36476062 587.9590958 40.93336487 594.3477478 C45.77362476 601.08906097 50.80337706 607.67790851 55.8506012 614.26498413 C60.85832091 620.80892464 65.77281504 627.41505242 70.64552307 634.05990601 C74.84770413 639.78647186 79.0948524 645.47749892 83.36451721 651.15390015 C88.21661269 657.60462682 93.02863236 664.08223899 97.80201721 670.59140015 C102.75055481 677.33532554 107.78149755 684.01081211 112.86451721 690.65390015 C120.90568195 701.16540951 128.75511928 711.81020812 136.57350159 722.48788452 C143.91580625 732.50925133 151.35150992 742.44885369 158.90089417 752.3152771 C163.88868494 758.84462822 168.78694015 765.43447688 173.64576721 772.06015015 C177.84777815 777.7867002 182.09492089 783.47758998 186.36451721 789.15390015 C191.21661269 795.60462682 196.02863236 802.08223899 200.80201721 808.59140015 C206.40137418 816.22226985 212.1166807 823.75881329 217.87037659 831.27377319 C223.20063974 838.24857623 228.42918512 845.29399912 233.61256409 852.37850952 C234.15848206 853.12423218 234.70440002 853.86995483 235.26686096 854.63827515 C235.74631165 855.29537476 236.22576233 855.95247437 236.71974182 856.62948608 C237.78138343 858.11770396 237.78138343 858.11770396 238.86451721 859.15390015 C238.96588175 861.81353855 239.00163911 864.44743992 238.99581909 867.10766602 C238.99899266 868.37326609 238.99899266 868.37326609 239.00223035 869.66443384 C239.00826023 872.51461375 239.00722804 875.36474975 239.00636292 878.2149353 C239.00939268 880.24983292 239.01291363 882.28472987 239.01689148 884.31962585 C239.02479895 888.71545106 239.02993251 893.11126808 239.03318214 897.50709915 C239.03908452 904.467547 239.05562066 911.42794348 239.07452393 918.3883667 C239.08086217 920.77086064 239.08718779 923.15335461 239.09350109 925.53584862 C239.0966669 926.72946345 239.09983271 927.92307828 239.10309446 929.15286326 C239.14515597 945.36283494 239.17810778 961.57278385 239.19044495 977.7828064 C239.19884478 988.70705242 239.22141296 999.63117244 239.25980061 1010.55535543 C239.27950888 1016.33447666 239.29198351 1022.11340972 239.28696632 1027.89256668 C239.28229455 1033.3410789 239.29626283 1038.78923592 239.32397842 1044.23767662 C239.33084983 1046.22771094 239.3310609 1048.21778231 239.32377815 1050.20781517 C239.27044856 1066.43118514 240.3676156 1083.38801599 251.67701721 1096.20858765 C263.13592485 1106.97441619 276.98572355 1109.30688601 292.07234192 1109.29434204 C293.75413689 1109.29879872 293.75413689 1109.29879872 295.46990752 1109.30334544 C299.22287095 1109.31200969 302.97580239 1109.31353876 306.72877502 1109.31503296 C309.42128651 1109.31966269 312.11379513 1109.32466724 314.80630493 1109.33007812 C322.11837762 1109.34363099 329.43044481 1109.34968118 336.74252796 1109.35408878 C341.31181516 1109.35685593 345.88110027 1109.36109409 350.45038605 1109.36559296 C363.11230461 1109.37778081 375.77422149 1109.38808162 388.43614578 1109.39146805 C389.65051588 1109.3917974 389.65051588 1109.3917974 390.88941871 1109.3921334 C391.70088265 1109.39235168 392.51234659 1109.39256996 393.34840035 1109.39279485 C394.99260728 1109.39323831 396.6368142 1109.39368487 398.28102112 1109.39413452 C399.50438382 1109.39446667 399.50438382 1109.39446667 400.75246093 1109.39480552 C413.96542351 1109.39875293 427.17833094 1109.41620738 440.39127222 1109.43949404 C453.97090815 1109.46323301 467.55051643 1109.47567103 481.13017344 1109.47683597 C488.74900111 1109.47775121 496.36775684 1109.48346554 503.98656464 1109.50165558 C510.4741652 1109.51709085 516.96167158 1109.52215682 523.44928703 1109.51391748 C526.75601478 1109.51002326 530.06251435 1109.51252801 533.36922646 1109.52497482 C536.96256541 1109.53770494 540.55542198 1109.53181118 544.14875793 1109.52139282 C545.69854997 1109.53347743 545.69854997 1109.53347743 547.27965093 1109.54580617 C556.55806591 1109.48312841 564.96800022 1107.48812878 573.23951721 1103.21640015 C574.19600159 1102.73300171 575.15248596 1102.24960327 576.13795471 1101.7515564 C584.74704184 1096.70697669 590.60571608 1088.38790538 593.25234985 1078.74525356 C596.11982476 1066.60700282 596.11769362 1054.61256261 596.02467346 1042.22787476 C596.01758612 1040.25678336 596.01153755 1038.285688 596.00643921 1036.31459045 C595.99429249 1032.09684222 595.97676731 1027.87916328 595.95552063 1023.66145134 C595.92383145 1016.98196574 595.91617342 1010.30258441 595.91383362 1003.62303162 C595.91332001 1002.49165722 595.9128064 1001.36028283 595.91227722 1000.19462436 C595.91123596 997.8827661 595.91023168 995.57090783 595.90926361 993.25904953 C595.90138834 977.72893605 595.8760254 962.19918689 595.79273987 946.66928101 C595.73658423 936.1634813 595.71604446 925.65826215 595.73593998 915.15232283 C595.74499587 909.60437325 595.73602314 904.05778695 595.68315125 898.51005363 C595.63364329 893.2931566 595.63113325 888.07829491 595.66362572 882.86128426 C595.66727792 880.9558055 595.65405734 879.05020165 595.62200356 877.14498901 C595.40975684 863.74767536 597.52086003 856.94959306 606.86451721 847.15390015 C608.07157212 845.5867276 609.25987772 844.00451101 610.41139221 842.39608765 C610.93861877 841.67872437 611.46584534 840.96136108 612.00904846 840.22225952 C612.53885315 839.49845093 613.06865784 838.77464233 613.61451721 838.02890015 C614.81760398 836.39085123 616.02073012 834.75283124 617.22389221 833.11483765 C617.82652893 832.29338257 618.42916565 831.47192749 619.05006409 830.62557983 C621.98257467 826.63086278 624.92388382 822.64263927 627.86451721 818.65390015 C629.03122832 817.07059956 630.19789494 815.48726619 631.36451721 813.90390015 C666.36451721 766.40390015 701.36451721 718.90390015 736.36451721 671.40390015 C737.23100891 670.2279126 737.23100891 670.2279126 738.11500549 669.02816772 C739.2799557 667.44721032 740.44499455 665.86631823 741.61012268 664.28549194 C744.55378701 660.29134187 747.49583067 656.29601584 750.43482971 652.2984314 C756.36261446 644.23872406 762.31619688 636.20065112 768.33033752 628.20516968 C773.96760807 620.70183235 779.52323 613.13859474 785.08229065 605.57723999 C788.00682467 601.60067496 790.93587155 597.62743743 793.86451721 593.65390015 C795.03120609 592.07058318 796.19787275 590.48724984 797.36451721 588.90390015 C804.36451721 579.40390015 804.36451721 579.40390015 806.11549377 577.02792358 C807.27934967 575.44817279 808.44276287 573.86809576 809.60572815 572.28768921 C812.56181216 568.27172073 815.52592404 564.26211879 818.50514221 560.26327515 C825.58848507 550.74059118 832.46381917 541.14951079 838.86451721 531.15390015 C839.35774475 530.38916382 839.85097229 529.62442749 840.35914612 528.83651733 C863.8137918 492.31624159 879.53231519 455.64344696 882.86451721 412.15390015 C882.98906595 410.63703456 882.98906595 410.63703456 883.11613083 409.08952522 C884.16126696 394.35260851 884.02165538 379.59044039 884.02455997 364.82513976 C884.02643184 360.72013212 884.03398895 356.6151339 884.04069519 352.51013184 C884.05418713 343.56413702 884.06028742 334.61814674 884.06470585 325.67214346 C884.06748101 320.07727687 884.07172032 314.48241198 884.07621002 308.88754654 C884.08838538 293.36692095 884.09869156 277.84629669 884.10208511 262.32566643 C884.10241446 260.84039325 884.10241446 260.84039325 884.10275047 259.32511456 C884.10296874 258.33273173 884.10318702 257.3403489 884.10341191 256.31789386 C884.10385536 254.30733736 884.10430193 252.29678086 884.10475159 250.28622437 C884.10508373 248.79030495 884.10508373 248.79030495 884.10542259 247.26416494 C884.10937428 231.0896427 884.12684742 214.9151654 884.15011111 198.74066053 C884.17385618 182.09609548 884.18628822 165.45155297 884.18745303 148.80697072 C884.18836744 139.47677662 884.19406162 130.1466413 884.21227264 120.81646347 C884.22771556 112.87738971 884.23276903 104.93839295 884.22453454 96.99930702 C884.22064431 92.95484035 884.22147786 88.91052857 884.23559189 84.86608124 C884.24842734 81.15393636 884.24705003 77.44206125 884.23500118 73.72991623 C884.23215151 71.77239218 884.24390565 69.81486303 884.25642323 67.85737693 C884.17775892 53.57129466 881.74852556 40.89585541 873.67701721 28.90390015 C862.58466012 18.05803988 848.18748576 14.82890686 833.18255615 14.89993286 C832.15412906 14.89681288 831.12570198 14.8936929 830.06611043 14.89047837 C826.6449306 14.88254734 823.22393056 14.88880296 819.80274963 14.89511108 C817.33963925 14.892399 814.87652968 14.88883685 812.41342163 14.88449097 C806.43197084 14.87633321 800.45058971 14.87750651 794.46914168 14.88331625 C789.60345023 14.88784524 784.73777281 14.8884403 779.87207985 14.88626862 C779.17779711 14.88596215 778.48351438 14.88565568 777.76819277 14.88533993 C776.35743861 14.88470043 774.94668446 14.884052 773.53593031 14.88339475 C760.32459143 14.87769946 747.11328036 14.88423609 733.90194605 14.89499548 C722.5885932 14.90392433 711.27528142 14.90238289 699.96192932 14.89315796 C686.80036901 14.8824309 673.63883307 14.87825493 660.47726899 14.88438249 C659.07097996 14.88501953 657.66469092 14.88564827 656.25840187 14.88626862 C655.56662522 14.88657717 654.87484857 14.88688572 654.16210898 14.88720362 C649.30897596 14.88892371 644.4558585 14.8860302 639.60272789 14.88130951 C633.05684481 14.87508184 626.51102681 14.87957903 619.96514702 14.89109802 C617.56950254 14.89373147 615.17385152 14.89300213 612.77820969 14.88857269 C584.58965508 14.57946451 584.58965508 14.57946451 560.36451721 27.77890015 C551.09496914 38.00325145 548.5574041 51.21319705 548.59950256 64.50166321 C548.59293066 66.18829892 548.59293066 66.18829892 548.58622599 67.90900809 C548.57392891 71.66768148 548.57571264 75.42621485 548.57740784 79.18490601 C548.57138165 81.88441088 548.5645588 84.58390247 548.55670166 87.28340149 C548.54126825 93.09562803 548.53284128 98.90783037 548.5289917 104.72007561 C548.52322415 113.15073423 548.50460215 121.5813283 548.48255116 130.01195831 C548.4468434 143.72747454 548.41853305 157.44299446 548.39625549 171.15853882 C548.39425301 172.38900252 548.39425301 172.38900252 548.39221007 173.64432407 C548.38279245 179.4600158 548.37363382 185.27570794 548.36451721 191.09140015 C548.35413537 197.70525138 548.34361053 204.31910236 548.33277893 210.93295288 C548.33144819 211.74710078 548.33011745 212.56124869 548.32874638 213.40006774 C548.30620285 227.04535979 548.27594869 240.69062476 548.24038649 254.33588892 C548.21888448 262.72771435 548.20414693 271.11949757 548.19854772 279.51134897 C548.19425305 285.28347785 548.18289344 291.05556669 548.16632378 296.82767325 C548.15705322 300.14217548 548.15187061 303.45654065 548.15338707 306.77106476 C548.15753739 319.47486431 547.96807505 332.11967345 547.03407288 344.7933197 C546.93059233 346.29362745 546.93059233 346.29362745 546.82502127 347.82424444 C546.04582396 357.15930027 543.56170584 365.51731256 539.30201721 373.84140015 C538.95687073 374.52291138 538.61172424 375.20442261 538.25611877 375.90658569 C535.10382424 381.97370191 531.41169166 387.58435329 527.54420471 393.2124939 C524.66140795 397.41383657 521.94522725 401.71206688 519.23951721 406.02890015 C514.5262879 413.53190573 509.77093564 421.00665549 504.98951721 428.46640015 C499.93500397 436.35412314 494.89000936 444.24765345 489.86451721 452.15390015 C483.43275093 462.27046515 476.9779894 472.37216353 470.50514221 482.4624939 C468.35301455 485.81952551 466.21269337 489.18276921 464.09889221 492.5640564 C457.35913432 503.32336668 450.73839026 513.48650348 437.59034729 516.71176147 C432.16646307 517.59153347 426.65934154 517.38125761 421.17701721 517.40390015 C419.33333557 517.43483765 419.33333557 517.43483765 417.45240784 517.46640015 C406.16535067 517.51455826 397.31686174 515.96171583 388.86451721 508.15390015 C383.54164435 502.70368583 379.50779895 496.73542568 375.61451721 490.21640015 C374.47399583 488.34054476 373.33204963 486.46555497 372.18873596 484.59140015 C371.62718811 483.6684314 371.06564026 482.74546265 370.48707581 481.79452515 C368.19367425 478.06214007 365.82119165 474.38468559 363.42701721 470.71640015 C359.30433574 464.38683171 355.22709713 458.03018851 351.17701721 451.65390015 C346.12809263 443.70766426 341.06585123 435.77015631 335.98951721 427.84140015 C335.32581116 426.8042688 334.6621051 425.76713745 333.97828674 424.69857788 C330.55104116 419.34438517 327.11925059 413.99317133 323.68092346 408.64608765 C319.72609892 402.49217619 315.78617226 396.3290042 311.86451721 390.15390015 C311.30264709 389.26960327 310.74077698 388.3853064 310.16188049 387.47421265 C300.93806383 372.8911033 294.90038142 360.24807949 294.25036621 342.72555542 C294.21281438 341.82967004 294.17526255 340.93378467 294.13657278 340.01075125 C293.6819974 328.01420449 293.70340622 316.01075459 293.69093323 304.00741577 C293.68461184 301.34563997 293.67790085 298.68386793 293.67066956 296.02209473 C293.65587574 290.33394192 293.644268 284.64579026 293.63472176 278.95762634 C293.62071762 270.7197629 293.599515 262.48192876 293.57629322 254.24408668 C293.53855553 240.85367977 293.50354519 227.46326767 293.47169495 214.07284546 C293.46979445 213.27468381 293.46789396 212.47652216 293.46593588 211.65417379 C293.4390606 200.30878963 293.41518326 188.96340116 293.39255088 177.61800784 C293.39095358 176.81742066 293.38935628 176.01683348 293.38771057 175.19198608 C293.38532037 173.99259304 293.38532037 173.99259304 293.38288189 172.76896983 C293.35606876 159.41260327 293.32166326 146.05626904 293.28105682 132.69993734 C293.25638426 124.48610073 293.23800082 116.27229867 293.22790121 108.05843097 C293.22048202 102.43274728 293.20591356 96.80711034 293.18583698 91.1814577 C293.17451007 87.94330286 293.16739983 84.70523706 293.16684532 81.46706009 C293.68864217 51.63146693 293.68864217 51.63146693 279.43873596 26.3453064 C264.49532921 13.62413615 245.22165502 14.71964449 226.81959534 14.78158569 C224.28707734 14.77915479 221.7545603 14.77543257 219.2220459 14.77052307 C213.08255909 14.76212245 206.9432223 14.76759173 200.8037461 14.77978601 C193.63988543 14.7934792 186.47605221 14.79176172 179.31218177 14.78965268 C166.52182283 14.78646993 153.73151975 14.79808931 140.94117737 14.81771851 C128.55671996 14.83671955 116.172328 14.84380514 103.78785706 14.83822632 C90.27139057 14.83215549 76.75495279 14.83236942 63.23848867 14.84371215 C61.79461257 14.84491932 60.35073646 14.84612531 58.90686035 14.84733009 C58.19661989 14.84793363 57.48637943 14.84853717 56.75461653 14.849159 C51.77220888 14.85302288 46.78981198 14.85265048 41.80740356 14.85074425 C35.08992475 14.84838879 28.37254131 14.85702143 21.65507698 14.87280464 C19.19654244 14.87702991 16.7379994 14.87790995 14.27946281 14.87511444 C-14.17140036 14.52096037 -14.17140036 14.52096037 -38.63548279 27.77890015 Z " fill="#602E4B" transform="translate(583.1354827880859,562.8460998535156)"/>
<path d="M0 0 C4.95 0 9.9 0 15 0 C15.00238835 1.03548162 15.00477671 2.07096325 15.00723743 3.1378231 C15.06639301 28.49419069 15.1424926 53.85046601 15.23571491 79.2067318 C15.28041863 91.4695181 15.31988961 103.73227701 15.34643555 115.99511719 C15.36962397 126.70052101 15.4032477 137.40583623 15.44870156 148.11116946 C15.47235709 153.76399968 15.49126476 159.41674369 15.49761391 165.06962204 C15.53616821 195.5841798 15.53616821 195.5841798 17.28198242 226.03759766 C17.38934628 227.33907934 17.49671015 228.64056103 17.60732746 229.98148155 C20.27749964 257.3385893 31.11582782 279.50161788 47.41796875 301.203125 C50.71805102 305.59852744 53.91044607 310.06016651 57.0625 314.5625 C62.7492854 322.66812902 68.53634385 330.69821849 74.34570312 338.71630859 C77.12918202 342.55879112 79.90874599 346.4040997 82.6875 350.25 C83.23140381 351.00273193 83.77530762 351.75546387 84.33569336 352.53100586 C87.97146627 357.56629553 91.58776084 362.61505986 95.19213867 367.67285156 C98.60863252 372.46267563 102.05238955 377.23253869 105.5 382 C109.74993183 387.87693589 113.98245223 393.76553952 118.19140625 399.671875 C121.60820318 404.46198259 125.05215104 409.23220886 128.5 414 C132.74993183 419.87693589 136.98245223 425.76553952 141.19140625 431.671875 C144.60820318 436.46198259 148.05215104 441.23220886 151.5 446 C155.75147723 451.87907292 159.98602185 457.76947738 164.19580078 463.6784668 C168.11568403 469.17494437 172.0737003 474.64370171 176.04077148 480.10620117 C178.76342427 483.86445932 181.45357693 487.63851634 184.07421875 491.46875 C203.08427135 519.18749109 227.04091026 536.69656534 260 544 C264.7243099 544.77429401 269.27311245 545.1376644 274.05834961 545.17700195 C274.72617462 545.18357315 275.39399963 545.19014435 276.08206177 545.19691467 C278.27215736 545.21647176 280.46218471 545.22827531 282.65234375 545.23828125 C283.40926577 545.24235678 284.16618778 545.2464323 284.94604683 545.25063133 C288.95857587 545.271425 292.97107148 545.28575125 296.98364258 545.29516602 C301.08162069 545.30617123 305.17904699 545.34052141 309.27683163 545.38033772 C312.46776681 545.4067741 315.65857629 545.4148818 318.84961128 545.41844749 C320.3575669 545.42325004 321.86551943 545.43467715 323.3733654 545.45348549 C354.23747689 545.81432049 380.90290457 531.89657412 403 511 C403.68707031 510.35417969 404.37414063 509.70835937 405.08203125 509.04296875 C420.8195148 493.80213162 433.07191156 474.58755761 446 457 C453.11544987 447.32003957 460.24404195 437.65224136 467.46582031 428.05126953 C473.70534748 419.74631473 479.84771643 411.36965513 486 403 C493.11544987 393.32003957 500.24404195 383.65224136 507.46582031 374.05126953 C513.70534748 365.74631473 519.84771643 357.36965513 526 349 C532.63385398 339.97520956 539.26715743 330.95131419 546 322 C552.18436717 313.77524762 558.30399012 305.50418293 564.38085938 297.19970703 C565.84956858 295.2043708 567.33519097 293.22332361 568.828125 291.24609375 C583.29435702 271.88543515 589.56889069 251.36176821 591.59301758 227.42480469 C591.65828569 226.65712816 591.7235538 225.88945163 591.79079974 225.09851217 C593.53481634 203.94377025 593.48222312 182.76305617 593.50611091 161.5504961 C593.5156691 155.84512709 593.54188206 150.13983142 593.56611633 144.43450928 C593.60931576 133.69406032 593.63814544 122.95362595 593.66143972 112.21311736 C593.68874537 99.95854238 593.73263798 87.70404292 593.77772844 75.4495225 C593.86990556 50.29972296 593.94188793 25.14989975 594 0 C598.95 0 603.9 0 609 0 C609.02344182 26.8529873 609.0410343 53.70597305 609.05181217 80.55896854 C609.05695128 93.02946885 609.06394811 105.49996278 609.07543945 117.97045898 C609.0854596 128.84966503 609.09187074 139.72886645 609.09408849 150.60807699 C609.09538324 156.35947744 609.09838974 162.11086465 609.10573006 167.86226082 C609.11260642 173.2950526 609.11459379 178.72782592 609.11310768 184.16062164 C609.11337886 186.13601978 609.11531415 188.11141865 609.11920547 190.08681297 C609.20091764 233.77541513 606.11904122 268.00639063 578.87792969 303.54541016 C576.35575122 306.84207972 573.86868205 310.16449261 571.38110352 313.48730469 C569.49786699 316.00284918 567.61027121 318.51508385 565.72265625 321.02734375 C559.76027485 328.97770332 553.88367711 336.99134116 548 345 C540.88523543 354.68045693 533.75595165 364.34776715 526.53417969 373.94873047 C520.29465252 382.25368527 514.15228357 390.63034487 508 399 C500.88455013 408.67996043 493.75595805 418.34775864 486.53417969 427.94873047 C480.29465252 436.25368527 474.15228357 444.63034487 468 453 C460.88846601 462.67463321 453.77487587 472.34596714 446.54296875 481.93115234 C443.82485889 485.54057874 441.14164606 489.17184259 438.4921875 492.83203125 C432.05821108 501.70429256 425.54852847 510.04196727 418 518 C416.82707915 519.36966886 415.65996692 520.74434332 414.5 522.125 C395.75543729 543.4669617 368.95785962 557.00602005 341 561 C331.1 561 321.2 561 311 561 C311 647.13 311 733.26 311 822 C306.05 822 301.1 822 296 822 C296 735.87 296 649.74 296 561 C286.1 561 276.2 561 266 561 C259.48329165 560.34832916 253.98854447 559.74389202 247.875 557.875 C247.15489746 557.65763184 246.43479492 557.44026367 245.69287109 557.21630859 C233.64831413 553.44828173 222.27201629 548.39119586 212 541 C211.21641113 540.43635742 211.21641113 540.43635742 210.41699219 539.86132812 C195.48780354 528.97999529 182.89767775 515.8719008 172 501 C171.49791016 500.31566895 170.99582031 499.63133789 170.47851562 498.92626953 C167.17662546 494.40901573 163.91143079 489.86613514 160.65722656 485.31445312 C157.95038673 481.53412879 155.22438944 477.7676853 152.5 474 C151.41657155 472.5000687 150.33323829 471.00006864 149.25 469.5 C148.445625 468.38625 148.445625 468.38625 147.625 467.25 C145.1875 463.875 145.1875 463.875 142.75 460.5 C142.21366943 459.75741943 141.67733887 459.01483887 141.12475586 458.24975586 C140.04211746 456.7506555 138.9595978 455.25146938 137.87719727 453.75219727 C135.15920177 449.98771832 132.43911932 446.22478096 129.71484375 442.46484375 C123.9301375 434.47643988 118.1920321 426.45884181 112.51708984 418.39208984 C107.28892951 410.97053547 101.967477 403.61734946 96.64111328 396.26611328 C93.38154682 391.76517667 90.1302738 387.25824565 86.87744141 382.75244141 C84.15930477 378.98792435 81.43918595 375.22487292 78.71484375 371.46484375 C72.9301375 363.47643988 67.1920321 355.45884181 61.51708984 347.39208984 C55.75185476 339.20813928 49.87446007 331.105709 44 323 C40.18942469 317.74208451 36.38641555 312.4789353 32.59521484 307.20703125 C31.01849412 305.02558721 29.4263752 302.85608427 27.83203125 300.6875 C3.22025244 266.92989606 -0.19156196 231.47787103 -0.11352539 190.72265625 C-0.11324268 188.63165285 -0.11340289 186.54064934 -0.1139679 184.449646 C-0.11425259 178.8226649 -0.10840914 173.1957055 -0.10139394 167.5687294 C-0.09510556 161.6697628 -0.09455229 155.7707956 -0.09336853 149.87182617 C-0.09027129 138.72340776 -0.08207974 127.57499926 -0.07201904 116.4265852 C-0.06080777 103.72512704 -0.05533486 91.02366838 -0.05032361 78.3222065 C-0.03989565 52.21479886 -0.02232758 26.10739999 0 0 Z " fill="#5E2D49" transform="translate(697,714)"/>
</svg>
